<svg width="184" height="235" viewBox="0 0 184 235" fill="#E4558D" xmlns="http://www.w3.org/2000/svg">
<path d="M164.31 47.4453C163.613 48.473 163.613 49.8432 164.136 50.8709C164.659 51.8986 165.878 52.5838 167.098 52.5838C167.272 52.5838 167.447 52.5838 167.621 52.5838C166.053 54.6392 162.393 57.8935 158.56 59.7776C154.901 61.6618 154.03 62.0043 152.984 62.3469C151.765 61.1479 150.371 59.9489 149.151 58.5787C147.931 57.2084 146.712 55.8381 145.666 54.4679C146.015 53.4402 146.537 52.5838 148.803 49.1581C151.068 45.7325 154.727 42.3068 156.992 40.9365C156.992 41.1078 156.992 41.4504 156.992 41.7929C156.818 42.9919 157.34 44.3622 158.386 45.0473C159.431 45.7325 160.825 45.7325 161.871 45.2186C163.962 44.0196 165.53 43.5058 166.401 43.3345C166.227 44.0196 165.704 45.3899 164.31 47.4453ZM138.697 67.9992C138.522 65.0874 139.568 62.1756 141.659 59.7776C142.53 60.8053 143.401 61.833 144.447 62.8607C145.318 63.8884 146.363 64.9161 147.409 65.7725C144.621 67.6567 141.484 68.5131 138.697 67.9992ZM81.3708 98.8301C72.1359 94.8906 67.9541 94.2055 63.0753 93.1778C60.9844 92.8352 58.7192 92.4927 55.9314 91.6362C60.4617 84.7849 64.295 76.5634 60.1132 66.4577C57.4995 60.1202 56.9768 53.7827 57.848 48.9868C57.848 48.8155 58.0223 48.6443 58.0223 48.473C58.545 46.075 59.4162 44.1909 60.4617 42.9919C61.3329 42.1355 62.2041 41.7929 63.4238 41.9642C67.0829 42.4781 72.8329 47.274 77.5374 56.8658C78.7571 59.4351 79.9768 62.3469 81.0223 65.43C81.8935 67.6566 82.242 69.5408 82.7647 71.4249C83.9844 76.0495 85.2041 80.1603 90.0829 88.5532C91.6511 91.1224 92.8708 94.0342 93.5677 96.7747C90.4314 93.3491 86.9465 90.266 83.1132 87.3542C82.242 86.669 80.848 86.8403 80.1511 87.6967C79.4541 88.5532 79.6283 89.9234 80.4995 90.6085C85.0298 94.0342 89.2117 97.9737 92.8707 102.427C89.7344 101.913 85.9011 100.714 81.3708 98.8301ZM49.1359 89.7521C48.6132 89.5808 48.0905 89.4096 47.5677 89.2383C37.4617 85.4701 32.2344 80.1603 31.1889 76.7346C30.492 74.6792 32.2344 73.4803 32.4086 73.309C35.545 70.5685 43.7344 69.0269 54.5374 70.911C56.6283 78.1049 53.1435 84.0998 49.1359 89.7521ZM36.7647 49.8432C38.8556 47.4453 44.4314 47.6166 50.8783 50.1858C50.3556 54.4679 50.8783 59.2638 52.098 63.8884C47.5677 63.3746 43.2117 63.3746 39.5526 63.8884C35.7192 57.8935 34.4995 52.4125 36.7647 49.8432ZM147.06 107.052L148.977 106.538C151.416 105.853 153.856 105.51 156.295 105.681C153.507 111.505 147.931 116.13 141.136 118.014C137.825 118.87 135.212 119.555 132.424 119.555C134.863 113.56 140.265 108.936 147.06 107.052ZM154.03 124.009L152.113 124.523C146.363 126.064 140.439 125.722 135.56 123.324C137.651 122.981 139.742 122.467 142.007 121.953C146.363 120.754 150.197 118.528 153.333 115.787C156.295 113.047 158.734 109.792 160.128 106.195C163.439 106.88 166.401 108.251 169.015 110.306C167.098 116.644 161.348 121.953 154.03 124.009ZM60.4617 134.286C56.9768 133.429 54.0147 131.031 52.4465 127.606V127.434C52.4465 127.434 52.4465 127.263 52.2723 127.263L51.9238 126.578C50.3556 123.152 50.1814 119.384 51.5753 116.301C55.0601 117.157 58.0223 119.555 59.5904 122.981L60.1132 124.009C61.8556 127.263 61.8556 131.031 60.4617 134.286ZM76.8404 150.729C74.2268 153.298 70.742 154.668 67.0829 154.497L65.8632 154.326C62.0298 153.983 58.7192 152.099 56.6283 149.359C59.0677 146.961 62.7268 145.59 66.5601 145.933C66.5601 145.933 68.4768 146.104 68.8253 146.104C68.8253 146.104 68.8253 146.104 68.9995 146.104C72.3101 146.789 75.098 148.331 76.8404 150.729ZM25.6132 111.676C21.4314 112.533 16.9011 111.505 13.4162 108.593L12.3708 107.737C8.8859 104.825 6.79499 100.714 6.79499 96.6034C10.9768 95.747 15.5071 96.7747 18.992 99.6865L20.0374 100.543C23.6965 103.283 25.6132 107.566 25.6132 111.676ZM34.4995 134.114C34.1511 134.114 33.8026 134.286 33.4541 134.286C29.795 135.142 25.9617 134.286 23.1738 132.23C24.742 129.147 27.8783 126.921 31.7117 126.064C31.8859 126.064 32.2344 125.893 32.4086 125.893H32.7571C36.4162 125.036 39.7268 126.407 42.8632 128.291C41.1208 131.203 38.1586 133.258 34.4995 134.114ZM97.4011 41.2791C96.3556 40.7653 95.1359 40.2514 93.742 39.5663C97.9238 35.6268 101.757 30.317 100.712 22.6093C99.6662 14.9015 102.454 8.56408 104.893 6.85125C105.416 6.50869 105.765 6.50869 106.462 6.67997C108.553 7.53639 111.689 11.8185 113.257 19.0123C113.606 20.8964 113.954 23.2944 114.128 25.5211C114.303 27.2339 114.303 28.6042 114.303 29.9744C114.303 33.4001 114.477 36.6545 116.393 43.6771C116.742 44.7048 116.916 45.7325 117.09 46.5889C115.871 44.7048 114.477 42.8206 113.083 40.9365C112.386 40.0801 110.992 39.9088 110.121 40.594C109.25 41.2791 109.075 42.4781 109.772 43.5058C111.863 46.2463 113.78 48.9868 115.348 52.0699C113.606 51.2135 111.689 49.8432 109.598 48.3017C103.674 44.0196 100.712 42.6494 97.4011 41.2791ZM87.8177 35.9693C87.6435 35.9693 87.6435 35.798 87.4692 35.798C81.1965 31.516 78.4086 27.0626 78.5829 24.8359C78.5829 24.3221 78.7571 23.9795 79.1056 23.8083C79.1056 23.8083 79.2798 23.637 79.4541 23.637C81.545 22.2667 87.4692 22.438 94.4389 25.5211C94.0904 29.8032 91.1283 33.0575 87.8177 35.9693ZM86.9465 7.53639C88.1662 6.67997 91.3026 7.19382 95.1359 9.76306C94.2647 12.3323 93.742 15.0728 93.742 18.1559C91.3026 17.2995 88.8632 16.6144 86.4238 16.2718C85.0298 11.6472 85.5526 8.3928 86.9465 7.53639ZM171.977 38.196C170.583 36.6545 167.969 35.4555 163.265 37.1683C162.916 36.4832 162.568 35.798 162.045 35.2842C161 34.0852 159.431 33.5714 157.863 33.7427C152.462 34.2565 145.666 41.9642 143.401 45.3899C140.613 49.672 140.09 50.6997 139.568 52.2412C139.568 52.4125 139.568 52.4125 139.393 52.5838C139.045 52.9263 138.697 53.0976 138.348 53.4402C133.818 57.551 131.378 63.5459 132.075 69.1982C130.507 70.7397 128.939 72.2813 127.545 73.9941C127.022 67.4854 125.28 61.4905 123.537 56.8658C124.409 52.2412 124.234 46.9314 122.84 41.7929C121.098 35.6268 121.098 33.0575 121.098 29.8032C121.098 28.4329 121.098 26.8913 120.924 25.0072C120.75 22.2667 120.401 19.6975 119.878 17.6421C117.962 8.90665 113.954 2.3979 109.075 0.513791C106.462 -0.513906 103.674 -0.342623 101.409 1.19892C100.363 1.88405 99.492 2.74047 98.6208 3.76816C92.8708 0.171226 87.295 -0.685189 83.4617 1.88405C79.4541 4.4533 78.2344 9.76306 79.8026 16.2718C78.2344 16.6144 76.8405 17.1282 75.6208 17.8134C73.1814 19.3549 71.9617 21.7529 71.9617 24.4934C71.9617 29.6319 76.3177 35.798 83.8101 40.9365C84.6814 41.6217 85.7268 42.1355 86.598 42.6494C90.2571 44.876 92.6965 45.9037 94.7874 46.9314C97.9238 48.3017 100.363 49.5007 105.59 53.4402C109.947 56.8658 113.954 58.9212 117.613 59.9489C119.704 65.9438 121.795 74.1654 120.924 82.7295C114.303 92.6639 110.121 103.969 108.553 115.445C106.636 111.676 104.545 107.908 102.106 104.482C101.931 97.9737 99.8404 91.1224 96.1814 85.1275C91.6511 77.4198 90.7798 73.8228 89.5602 69.3695C89.0374 67.4854 88.5147 65.6012 87.6435 63.032C86.4238 59.6064 85.2041 56.352 83.8101 53.6115C78.4086 42.9919 71.2647 35.9693 64.6435 35.1129C61.1586 34.5991 58.0223 35.798 55.7571 38.3673C54.5374 39.7376 53.492 41.4504 52.795 43.5058C43.9086 40.2514 36.242 40.7653 32.2344 45.2186C28.0526 49.8432 28.4011 57.2084 33.1056 65.43C30.6662 66.2864 28.7495 67.6567 27.3556 69.1982C25.0904 71.7674 24.2192 74.8505 25.0904 78.2762C26.6586 84.7849 34.3253 91.1224 45.6511 95.4045C47.045 95.9183 48.4389 96.4322 49.8329 96.7747C55.4086 98.4876 58.8935 99.0014 62.0298 99.6865C66.7344 100.543 70.3935 101.228 78.9314 104.825C85.901 107.908 91.8253 109.278 97.2268 109.278C103.151 117.843 106.984 127.777 108.727 138.054C108.727 138.568 109.075 140.452 109.075 140.623C110.121 146.618 111.863 152.442 114.303 157.923C114.303 158.094 116.393 162.376 117.439 164.26C120.575 169.912 124.234 175.222 128.765 180.018L129.81 181.217L83.6359 148.673C81.0223 144.049 76.492 140.623 70.742 139.595L66.7344 136.684C68.9995 131.716 68.8253 125.893 66.3859 120.754L65.8632 119.727C62.9011 113.56 56.8026 109.45 50.1814 108.936C48.9617 108.936 47.9162 109.45 47.2192 110.306C45.1283 113.389 44.0829 116.815 44.0829 120.583L32.4086 112.704C32.7571 106.195 29.795 99.6865 24.3935 95.4045L23.348 94.548C17.4238 89.7521 9.40863 88.3819 2.43893 90.9511C1.39348 91.2937 0.522267 92.3214 0.348024 93.5203C-0.871673 100.714 2.09045 108.079 8.18893 112.875L9.23439 113.732C14.6359 118.185 21.9541 119.727 28.2268 117.843L30.6662 119.555C30.492 119.555 30.3177 119.555 30.1435 119.727C23.348 121.097 17.9465 125.893 15.8556 132.059C15.5071 133.258 15.8556 134.457 16.5526 135.313C21.0829 140.109 28.0526 142.336 34.6738 140.794C35.0223 140.794 35.545 140.623 35.8935 140.623C40.7723 139.595 45.1283 136.684 47.742 132.915C50.3556 136.684 54.1889 139.424 58.3708 140.623C54.8859 141.993 51.9238 144.22 49.6586 147.303C48.9617 148.331 48.9617 149.53 49.3101 150.558C52.098 156.552 58.1965 160.492 65.1662 161.006L66.3859 161.177C71.9617 161.691 77.3632 159.636 81.3708 155.696L151.068 205.025L177.901 234.144C179.121 235.514 181.212 235.685 182.606 234.315C184 233.116 184 231.06 182.78 229.69L155.772 200.401C155.772 200.401 155.772 200.401 155.598 200.23L133.295 176.079C127.893 170.084 123.537 163.575 120.401 156.552C120.924 146.275 123.886 136.17 128.59 127.263C135.734 132.059 144.969 133.601 153.856 131.031L155.772 130.517C166.053 127.606 173.893 119.727 176.159 109.964C176.507 108.765 176.159 107.566 175.287 106.88C167.969 99.8578 156.992 97.4599 146.712 100.372L144.795 100.886C134.689 103.797 127.022 111.334 124.409 120.926C120.401 127.606 117.439 134.971 115.697 142.507C115.522 141.308 114.825 137.711 114.651 137.026C111.515 114.759 118.833 91.2937 136.257 74.6792C142.007 75.8782 148.106 74.1654 152.81 70.0546C153.159 69.712 153.507 69.5408 153.681 69.1982C153.856 69.1982 153.856 69.1982 154.03 69.0269C155.772 68.5131 156.818 68.1705 161.348 65.9438C165.181 64.0597 173.545 58.0648 174.59 52.755C174.939 51.0422 174.416 49.672 173.371 48.473C172.848 47.9591 172.325 47.6166 171.803 47.274C174.242 42.3068 173.197 39.7376 171.977 38.196Z" fill="#E4558D"/>
</svg>
