<svg width="63" height="69" viewBox="0 0 63 69" fill="none" xmlns="http://www.w3.org/2000/svg">
<path d="M6.15628 49.1359V60.2239C6.15628 61.9044 6.82382 63.5159 8.01205 64.7042C9.20028 65.8924 10.8119 66.5599 12.4923 66.5599H50.5083C52.1887 66.5599 53.8003 65.8924 54.9885 64.7042C56.1767 63.5159 56.8443 61.9044 56.8443 60.2239V49.1359M2.98828 41.2159V38.0479C2.98828 36.3675 3.65582 34.756 4.84405 33.5677C6.03228 32.3795 7.64387 31.7119 9.32428 31.7119H53.6763C55.3567 31.7119 56.9683 32.3795 58.1565 33.5677C59.3447 34.756 60.0123 36.3675 60.0123 38.0479V41.2159M31.5003 22.2079V31.7119M31.5003 22.2079C35.4983 22.2079 37.8363 19.1413 37.8363 13.892C37.8363 8.64257 31.5003 3.19995 31.5003 3.19995C31.5003 3.19995 25.1643 8.64257 25.1643 13.892C25.1643 19.1413 27.5023 22.2079 31.5003 22.2079Z" stroke="#FF85A1" stroke-width="4.752" stroke-linecap="round" stroke-linejoin="round"/>
<path d="M2.9884 41.2159C2.9884 43.7366 3.98972 46.1539 5.77206 47.9363C7.55441 49.7186 9.97179 50.7199 12.4924 50.7199C15.013 50.7199 17.4304 49.7186 19.2127 47.9363C20.9951 46.1539 21.9964 43.7366 21.9964 41.2159C21.9964 43.7366 22.9977 46.1539 24.7801 47.9363C26.5624 49.7186 28.9798 50.7199 31.5004 50.7199C34.021 50.7199 36.4384 49.7186 38.2207 47.9363C40.0031 46.1539 41.0044 43.7366 41.0044 41.2159C41.0044 43.7366 42.0057 46.1539 43.7881 47.9363C45.5704 49.7186 47.9878 50.7199 50.5084 50.7199C53.029 50.7199 55.4464 49.7186 57.2288 47.9363C59.0111 46.1539 60.0124 43.7366 60.0124 41.2159" stroke="#FF85A1" stroke-width="4.752" stroke-linecap="round" stroke-linejoin="round"/>
</svg>
