<svg width="77" height="77" viewBox="0 0 77 77" fill="none" xmlns="http://www.w3.org/2000/svg">
<path fill-rule="evenodd" clip-rule="evenodd" d="M25.1075 9.12936C26.1566 8.72618 27.3158 8.71433 28.3729 9.09598C29.4299 9.47762 30.3142 10.2272 30.8638 11.2076L31.0539 11.5782L40.6212 32.5441H57.5922V27.7921C57.5919 25.7813 58.3564 23.8456 59.7307 22.3778C61.105 20.91 62.9862 20.0198 64.9926 19.8879L65.5122 19.8721H67.0962C67.9036 19.8729 68.6803 20.1821 69.2674 20.7364C69.8546 21.2907 70.2079 22.0483 70.2552 22.8544C70.3026 23.6605 70.0403 24.4542 69.522 25.0734C69.0038 25.6926 68.2687 26.0905 67.4668 26.1859L67.0962 26.208H65.5122C65.1415 26.2079 64.7824 26.3378 64.4976 26.5752C64.2128 26.8125 64.0203 27.1422 63.9535 27.5069L63.9282 27.7921V35.7121C63.9278 43.0427 61.104 50.0915 56.043 55.3948C57.3271 55.9629 58.437 56.8621 59.2591 58.0003C60.0813 59.1385 60.586 60.4748 60.7217 61.8723C60.8574 63.2697 60.6192 64.6782 60.0314 65.9533C59.4436 67.2284 58.5274 68.3243 57.3767 69.1288C56.2259 69.9333 54.882 70.4174 53.4826 70.5315C52.0831 70.6456 50.6785 70.3857 49.4127 69.7783C48.1468 69.1709 47.0651 68.2379 46.2785 67.0749C45.4919 65.9118 45.0286 64.5606 44.936 63.1596L44.9202 62.5925C39.1706 64.6263 32.9204 64.7628 27.0875 62.9822L25.9122 62.5925V62.64C25.9119 64.0663 25.5265 65.4659 24.7966 66.6912C24.0668 67.9166 23.0196 68.9221 21.7657 69.6016C20.5118 70.2811 19.0976 70.6094 17.6726 70.5519C16.2475 70.4943 14.8645 70.053 13.6694 69.2746C12.4744 68.4962 11.5117 67.4095 10.8831 66.1293C10.2544 64.8491 9.98314 63.4229 10.0978 62.0014C10.2125 60.5798 10.709 59.2155 11.5348 58.0527C12.3605 56.8899 13.485 55.9716 14.7893 55.3948C11.5544 52.0038 9.20527 47.8676 7.9498 43.3523C6.69434 38.837 6.57126 34.0818 7.59148 29.5076C8.61169 24.9334 10.7437 20.6813 13.7989 17.1274C16.8541 13.5735 20.7382 10.8244 25.1075 9.12936ZM17.9922 61.056C17.5721 61.056 17.1692 61.2229 16.8721 61.52C16.5751 61.817 16.4082 62.2199 16.4082 62.64C16.4082 63.0602 16.5751 63.463 16.8721 63.7601C17.1692 64.0572 17.5721 64.224 17.9922 64.224C18.4123 64.224 18.8152 64.0572 19.1122 63.7601C19.4093 63.463 19.5762 63.0602 19.5762 62.64C19.5762 62.2199 19.4093 61.817 19.1122 61.52C18.8152 61.2229 18.4123 61.056 17.9922 61.056ZM52.8402 61.056C52.4201 61.056 52.0172 61.2229 51.7201 61.52C51.4231 61.817 51.2562 62.2199 51.2562 62.64C51.2562 63.0602 51.4231 63.463 51.7201 63.7601C52.0172 64.0572 52.4201 64.224 52.8402 64.224C53.2603 64.224 53.6632 64.0572 53.9603 63.7601C54.2573 63.463 54.4242 63.0602 54.4242 62.64C54.4242 62.2199 54.2573 61.817 53.9603 61.52C53.6632 61.2229 53.2603 61.056 52.8402 61.056ZM57.3641 38.8801H13.4683C14.231 44.157 16.8695 48.9825 20.9003 52.4725C24.9311 55.9626 30.0844 57.8836 35.4162 57.8836C40.748 57.8836 45.9013 55.9626 49.9321 52.4725C53.9629 48.9825 56.6013 44.157 57.3641 38.8801ZM25.9502 15.6586C22.784 17.1533 20.0166 19.3764 17.8747 22.1461C15.7327 24.9158 14.277 28.1533 13.6267 31.5937L13.4683 32.5441H33.6548L25.9502 15.6586Z" fill="#FF85A1"/>
</svg>
