<svg width="58" height="58" viewBox="0 0 58 58" fill="none" xmlns="http://www.w3.org/2000/svg">
<path d="M27.152 0.280012C23.533 0.280012 20.552 3.26101 20.552 6.88001L20.5872 6.51921L18.4202 19.5212L14.2622 30.8996C14.183 31.003 14.0884 31.08 13.952 31.08H11.752V28.88H0.751953V57.48H11.752V50.88H20.3892C24.006 50.88 27.2642 49.1266 29.352 46.403C31.442 49.1266 34.698 50.88 38.3148 50.88H46.952V57.48H57.952V28.88H46.952V31.08H44.752C44.6134 31.08 44.521 31.003 44.444 30.8996L40.2838 19.5212L38.1168 6.51921L38.152 6.88001C38.152 3.26101 35.171 0.280012 31.552 0.280012C30.804 0.280012 30.0384 0.425212 29.352 0.779412C28.6682 0.441976 27.9144 0.270862 27.152 0.280012ZM27.075 4.71521C27.119 5.03201 27.152 5.75361 27.152 6.88001V40.8436C26.8642 42.4268 26.0293 43.8586 24.7932 44.8888C23.5571 45.919 21.9983 46.4822 20.3892 46.48H11.752V35.48H13.952C14.803 35.4788 15.6384 35.2522 16.3734 34.8232C17.1084 34.3943 17.7167 33.7783 18.1364 33.038L18.2244 32.8752L22.6838 20.6388L24.952 7.06041V6.88001C24.952 5.67001 25.8804 4.75701 27.075 4.71521ZM31.629 4.71521C32.8236 4.75921 33.752 5.66781 33.752 6.88001V7.06041L36.0202 20.6388L40.4818 32.8752L40.5676 33.0402C40.9875 33.7801 41.5959 34.3956 42.3309 34.8242C43.0658 35.2527 43.9012 35.479 44.752 35.48H46.952V46.48H38.3148C36.7053 46.4821 35.1463 45.9186 33.9101 44.888C32.674 43.8573 31.8393 42.425 31.552 40.8414V6.88001C31.552 5.75361 31.5872 5.03201 31.629 4.71521ZM5.15195 33.28H7.35195V53.08H5.15195V33.28ZM51.352 33.28H53.552V53.08H51.352V33.28Z" fill="#FF85A1"/>
</svg>
