<svg width="73" height="70" viewBox="0 0 73 70" fill="none" xmlns="http://www.w3.org/2000/svg">
<path d="M17.8003 29.8956L21.4693 26.2266L17.8003 22.5576L21.4693 18.8886L28.8073 26.2266L21.4693 33.5647L17.8003 29.8956ZM8.03933 24.496C8.14317 24.496 8.21239 24.5306 8.31623 24.5306C10.3801 19.4087 13.9282 15.0208 18.5048 11.9307C23.0813 8.84065 28.4772 7.18946 33.9993 7.1893C41.5796 7.1893 48.3985 10.2353 53.4174 15.1504C53.9366 13.0736 54.975 10.6852 56.2211 8.36615C49.9901 3.12532 42.1067 0.256409 33.9647 0.266629C17.0734 0.266629 3.02039 12.4159 0.0090332 28.4419C1.94738 26.019 4.88951 24.496 8.03933 24.496ZM65.1513 29.688C63.6976 29.688 62.313 29.3764 61.0323 28.9265C61.4477 30.8302 61.69 32.8378 61.69 34.88C61.69 50.1791 49.2984 62.5706 33.9993 62.5706C22.3692 62.5706 12.4352 55.4057 8.31623 45.2294C8.21239 45.2294 8.14317 45.264 8.03933 45.264C6.23943 45.264 4.43954 44.7794 2.84733 43.8794C1.7397 43.2564 0.80514 42.4257 0.0090332 41.4565C3.08962 57.4132 17.0734 69.4933 33.9301 69.4933C53.1059 69.4933 68.6127 53.9865 68.6127 34.88C68.6127 32.9762 68.405 31.1071 68.1281 29.2726C67.1569 29.5341 66.157 29.6736 65.1513 29.688ZM65.1513 3.72796C65.1513 3.72796 58.2287 13.7658 58.2287 17.5733C58.2287 21.3808 61.3439 24.496 65.1513 24.496C68.9588 24.496 72.074 21.3808 72.074 17.5733C72.074 13.7658 65.1513 3.72796 65.1513 3.72796ZM46.5294 18.8886L39.1913 26.2266L46.5294 33.5647L50.1984 29.8956L46.5294 26.2266L50.1984 22.5576L46.5294 18.8886ZM22.0923 52.1866C24.4807 48.0676 28.9112 45.264 33.9993 45.264C39.0875 45.264 43.518 48.0676 45.9063 52.1866H51.7214C48.9523 45.0909 42.0642 40.072 33.9993 40.072C30.988 40.072 28.1151 40.7642 25.5883 42.0449L13.1967 34.88C13.1967 33.0801 12.2968 31.3494 10.6353 30.4148C8.14317 28.9957 4.99335 29.8264 3.53959 32.3186C2.12045 34.8107 2.95117 37.9606 5.44333 39.4143C7.10477 40.3835 9.07773 40.2796 10.6007 39.4143L20.8809 45.3678C18.9079 47.2023 17.3157 49.556 16.2773 52.1866H22.0923Z" fill="#FF85A1"/>
</svg>
