<svg width="90" height="90" viewBox="0 0 90 90" fill="none" xmlns="http://www.w3.org/2000/svg">
<path d="M10.3513 31.9858L42.5379 15.8944C42.8472 15.7399 43.1883 15.6595 43.5341 15.6595C43.8798 15.6595 44.2209 15.7399 44.5302 15.8944L76.7168 31.9895C77.0869 32.1749 77.3982 32.4596 77.6157 32.8118C77.8333 33.164 77.9485 33.5698 77.9485 33.9838C77.9485 34.3977 77.8333 34.8035 77.6157 35.1557C77.3982 35.5079 77.0869 35.7926 76.7168 35.978L44.5302 52.0694C44.2209 52.2239 43.8798 52.3043 43.5341 52.3043C43.1883 52.3043 42.8472 52.2239 42.5379 52.0694L10.3513 35.9743C9.98118 35.7889 9.66991 35.5042 9.45238 35.152C9.23484 34.7998 9.11963 34.394 9.11963 33.98C9.11963 33.5661 9.23484 33.1603 9.45238 32.8081C9.66991 32.4559 9.98118 32.1712 10.3513 31.9858Z" stroke="#FF85A1" stroke-width="5.57568" stroke-linecap="round" stroke-linejoin="round"/>
<path d="M84.4243 48.8506V35.8407L76.99 32.1235M17.5161 39.5578V59.6748C17.5158 61.0813 17.9145 62.459 18.6659 63.6479C19.4173 64.8369 20.4906 65.7883 21.7611 66.3917L40.3467 75.2161C41.3433 75.6894 42.4327 75.935 43.536 75.935C44.6392 75.935 45.7287 75.6894 46.7252 75.2161L65.3108 66.3917C66.5813 65.7883 67.6546 64.8369 68.406 63.6479C69.1574 62.459 69.5561 61.0813 69.5558 59.6748V39.5578" stroke="#FF85A1" stroke-width="5.57568" stroke-linecap="round" stroke-linejoin="round"/>
</svg>
