<svg width="77" height="77" viewBox="0 0 77 77" fill="none" xmlns="http://www.w3.org/2000/svg">
<path fill-rule="evenodd" clip-rule="evenodd" d="M32.5431 5.61633C27.3792 5.61633 23.8311 9.92481 23.8311 14.7719C23.8311 20.601 27.696 25.0679 31.0224 27.8557C32.9376 29.4575 35.0193 30.8488 37.2317 32.0058C37.4218 32.1008 37.5802 32.1959 37.7069 32.2275L37.8336 32.2909H37.8653C38.4989 32.6077 39.2592 32.6077 39.8928 32.3226H39.9245L40.0512 32.2275C40.178 32.1959 40.3364 32.1008 40.5264 32.0058C42.7389 30.8488 44.8206 29.4575 46.7357 27.8557C50.0621 25.0679 53.9271 20.601 53.9271 14.7719C53.9271 9.92481 50.3789 5.61633 45.2151 5.61633C43.346 5.61633 41.6669 6.02817 40.1463 6.94689C39.7028 7.23201 39.2592 7.58049 38.8791 7.92897C38.4989 7.58049 38.0554 7.23201 37.6119 6.94689C36.0912 6.02817 34.4122 5.61633 32.5431 5.61633ZM39.6394 27.0637C39.3543 27.2221 39.1008 27.3805 38.8791 27.5072C38.6573 27.3805 38.4039 27.2221 38.1188 27.0637C36.6947 26.2207 35.3389 25.2673 34.0637 24.2125C31.0541 21.7098 28.5831 18.4467 28.5831 14.7719C28.5831 12.1424 30.3888 10.3683 32.5431 10.3683C33.6836 10.3683 34.4756 10.6218 35.0775 10.9703C35.6794 11.3504 36.2496 11.984 36.7565 12.9978C37.1684 13.7898 37.992 14.2967 38.8791 14.2967C39.7661 14.2967 40.5898 13.7898 41.0016 12.9978C41.5085 11.984 42.0788 11.3504 42.6807 10.9703C43.2826 10.6218 44.0746 10.3683 45.2151 10.3683C47.3693 10.3683 49.1751 12.1424 49.1751 14.7719C49.1751 18.4467 46.704 21.7098 43.6944 24.2125C42.2372 25.448 40.7482 26.3984 39.6394 27.0637ZM27.7911 38.8803C19.4909 38.8803 12.7431 45.6282 12.7431 53.9283C12.7431 62.2285 19.4909 68.9763 27.7911 68.9763C30.4522 68.9763 32.9866 68.2794 35.1408 67.0438C31.9252 63.4332 30.1542 58.7633 30.1671 53.9283C30.1671 48.8912 32.0362 44.2976 35.1408 40.8128C32.9866 39.5773 30.4522 38.8803 27.7911 38.8803ZM27.7911 73.7283C31.9095 73.7283 35.7111 72.4928 38.8791 70.3386C42.0471 72.4928 45.8487 73.7283 49.9671 73.7283C60.8967 73.7283 69.7671 64.8579 69.7671 53.9283C69.7671 42.9987 60.8967 34.1283 49.9671 34.1283C45.8487 34.1283 42.0471 35.3639 38.8791 37.5181C35.7111 35.3639 31.9095 34.1283 27.7911 34.1283C16.8615 34.1283 7.99109 42.9987 7.99109 53.9283C7.99109 64.8579 16.8615 73.7283 27.7911 73.7283ZM49.9671 38.8803C47.306 38.8803 44.7716 39.5773 42.6173 40.8128C45.722 44.2976 47.5911 48.8912 47.5911 53.9283C47.5911 58.9655 45.722 63.5591 42.6173 67.0438C44.7716 68.2794 47.306 68.9763 49.9671 68.9763C58.2672 68.9763 65.0151 62.2285 65.0151 53.9283C65.0151 45.6282 58.2672 38.8803 49.9671 38.8803ZM42.8391 53.9283C42.8391 50 41.3501 46.4202 38.8791 43.7591C36.408 46.4202 34.9191 50 34.9191 53.9283C34.9191 57.8567 36.408 61.4365 38.8791 64.0976C41.3501 61.4365 42.8391 57.8567 42.8391 53.9283Z" fill="#FF85A1" stroke="#FF85A1" stroke-width="1.056" stroke-linecap="round" stroke-linejoin="round"/>
</svg>
