<svg width="20" height="26" viewBox="0 0 20 26" fill="none" xmlns="http://www.w3.org/2000/svg">
<path d="M18.75 7.14648H15V5.89648C15 4.5704 14.4732 3.29863 13.5355 2.36095C12.5979 1.42327 11.3261 0.896484 10 0.896484C8.67392 0.896484 7.40215 1.42327 6.46447 2.36095C5.52678 3.29863 5 4.5704 5 5.89648V7.14648H1.25C0.918479 7.14648 0.600537 7.27818 0.366117 7.5126C0.131696 7.74702 0 8.06496 0 8.39648V22.1465C0 23.141 0.395088 24.0949 1.09835 24.7981C1.80161 25.5014 2.75544 25.8965 3.75 25.8965H16.25C17.2446 25.8965 18.1984 25.5014 18.9017 24.7981C19.6049 24.0949 20 23.141 20 22.1465V8.39648C20 8.06496 19.8683 7.74702 19.6339 7.5126C19.3995 7.27818 19.0815 7.14648 18.75 7.14648ZM7.5 5.89648C7.5 5.23344 7.76339 4.59756 8.23223 4.12872C8.70107 3.65988 9.33696 3.39648 10 3.39648C10.663 3.39648 11.2989 3.65988 11.7678 4.12872C12.2366 4.59756 12.5 5.23344 12.5 5.89648V7.14648H7.5V5.89648ZM17.5 22.1465C17.5 22.478 17.3683 22.7959 17.1339 23.0304C16.8995 23.2648 16.5815 23.3965 16.25 23.3965H3.75C3.41848 23.3965 3.10054 23.2648 2.86612 23.0304C2.6317 22.7959 2.5 22.478 2.5 22.1465V9.64648H5V10.8965C5 11.228 5.1317 11.5459 5.36612 11.7804C5.60054 12.0148 5.91848 12.1465 6.25 12.1465C6.58152 12.1465 6.89946 12.0148 7.13388 11.7804C7.3683 11.5459 7.5 11.228 7.5 10.8965V9.64648H12.5V10.8965C12.5 11.228 12.6317 11.5459 12.8661 11.7804C13.1005 12.0148 13.4185 12.1465 13.75 12.1465C14.0815 12.1465 14.3995 12.0148 14.6339 11.7804C14.8683 11.5459 15 11.228 15 10.8965V9.64648H17.5V22.1465Z" fill="#423B3C"/>
</svg>
