<svg width="64" height="62" viewBox="0 0 64 62" fill="none" xmlns="http://www.w3.org/2000/svg">
<path d="M53.6487 42.4534C53.3017 42.3374 52.9079 42.442 52.6512 42.6662C52.3946 42.8905 52.288 43.2831 52.3784 43.6234C52.3913 43.672 52.4042 43.7206 52.4171 43.7693C51.7102 43.4886 50.5037 42.7161 49.6782 41.7904C48.8656 40.9133 48.7026 40.6963 48.5267 40.4308C48.7809 39.999 49.0222 39.5185 49.3257 39.0737C49.6291 38.6288 49.9326 38.1839 50.2489 37.7876C50.5701 37.8064 50.855 37.8869 52.0074 38.2574C53.1598 38.6279 54.4155 39.3874 54.9772 39.9148C54.9279 39.9279 54.8295 39.954 54.731 39.9802C54.3735 40.0231 54.0184 40.2735 53.8989 40.6175C53.7795 40.9614 53.8828 41.3504 54.1079 41.6028C54.6074 42.0947 54.8713 42.493 54.9851 42.723C54.7753 42.7267 54.3427 42.6854 53.6487 42.4534ZM45.8435 36.8758C46.6675 36.6049 47.5818 36.6744 48.4259 37.0747C48.1951 37.3962 47.9643 37.7178 47.7464 38.0879C47.5155 38.4094 47.2976 38.7795 47.129 39.1366C46.3809 38.5025 45.9024 37.6928 45.8435 36.8758ZM32.7349 23.2347C33.1829 20.3574 33.07 19.1383 33.0039 17.6987C32.9474 17.0892 32.8781 16.431 32.9176 15.5878C35.2224 16.3289 37.8694 16.7709 40.4641 14.8328C42.0919 13.6199 43.8746 12.9904 45.3176 12.8674C45.3668 12.8543 45.4289 12.8899 45.4782 12.8768C46.2061 12.8396 46.8121 12.9389 47.2342 13.1391C47.5449 13.3168 47.7079 13.5337 47.7491 13.8871C47.8725 14.9472 46.9201 16.9175 44.5119 18.9622C43.8638 19.4986 43.1173 20.0612 42.3087 20.5882C41.7332 21.0012 41.2175 21.2422 40.7148 21.5319C39.476 22.2252 38.3848 22.8792 36.3341 24.881C35.7119 25.5146 34.9654 26.0772 34.2294 26.4808C34.9816 25.3443 35.6095 24.1367 36.1623 22.8449C36.2947 22.5495 36.1422 22.1737 35.8444 22.0446C35.5466 21.9155 35.1657 22.0687 35.0333 22.3641C34.3844 23.8895 33.562 25.357 32.5532 26.7178C32.4685 25.8035 32.5291 24.6424 32.7349 23.2347ZM32.9557 13.548C32.9662 13.3891 32.9767 13.2302 32.9872 13.0713C33.3214 9.96402 34.4602 8.10031 35.3673 7.54716C35.9064 7.19583 36.3801 7.59046 36.4422 7.626C37.4623 8.2919 38.5121 10.4591 38.771 13.6171C36.8583 14.7495 34.8771 14.2348 32.9557 13.548ZM43.5093 7.05036C44.3534 7.45072 44.7173 9.01946 44.4566 11.0143C43.1871 11.1953 41.8474 11.7072 40.6086 12.4005C40.4207 11.0973 40.0979 9.88188 39.6791 8.90019C41.1181 7.37311 42.603 6.61447 43.5093 7.05036ZM35.2391 42.19L35.5288 42.6855C35.9064 43.3138 36.1856 43.9683 36.3171 44.662C34.4368 44.3286 32.6945 43.1259 31.6495 41.3737C31.158 40.5154 30.7675 39.8385 30.5609 39.0606C32.4647 39.2837 34.194 40.4378 35.2391 42.19ZM30.8818 45.4288L30.5921 44.9332C29.723 43.4466 29.3826 41.7676 29.7103 40.2233C29.9637 40.7806 30.2663 41.3247 30.5818 41.9175C31.2491 43.0413 32.1731 43.9409 33.1932 44.6068C34.2003 45.2241 35.3164 45.6563 36.4535 45.7707C36.5018 46.7467 36.3275 47.6777 35.9304 48.5638C33.9669 48.5128 32.0148 47.3137 30.8818 45.4288ZM20.9954 20.107C20.9833 19.0694 21.4531 18.0599 22.3214 17.3609L22.3707 17.3478C22.3707 17.3478 22.4199 17.3347 22.407 17.2861L22.5781 17.1366C23.4465 16.4376 24.5166 16.1014 25.506 16.255C25.518 17.2926 25.0483 18.3021 24.1799 19.0011L23.9233 19.2254C23.117 19.9599 22.034 20.2475 20.9954 20.107ZM17.483 25.9318C16.5509 25.3987 15.8989 24.531 15.677 23.497L15.6359 23.1436C15.4503 22.048 15.7465 20.9805 16.3793 20.1879C17.2492 20.6855 17.9141 21.6018 18.0997 22.6975C18.0997 22.6975 18.1925 23.2453 18.2183 23.3426C18.2183 23.3426 18.2183 23.3426 18.2312 23.3912C18.2796 24.3672 18.0431 25.2627 17.483 25.9318ZM24.9115 8.6584C24.3555 7.55701 24.3153 6.21458 24.8939 5.02005L25.0626 4.66299C25.6413 3.46845 26.6679 2.57132 27.8494 2.25757C28.4053 3.35896 28.4456 4.70138 27.867 5.89592L27.6983 6.25297C27.1817 7.48306 26.093 8.34464 24.9115 8.6584ZM19.121 12.8503C19.0952 12.7531 19.0201 12.6689 18.9943 12.5717C18.4771 11.6162 18.4392 10.4813 18.8234 9.54656C19.8257 9.74878 20.698 10.4539 21.2282 11.4581C21.2411 11.5067 21.3161 11.5908 21.3291 11.6394L21.3549 11.7367C21.8721 12.6922 21.7236 13.7205 21.4145 14.7394C20.4485 14.4755 19.6383 13.8059 19.121 12.8503ZM50.4634 23.3147C50.5337 22.9838 50.591 22.6042 50.6846 22.163C52.1267 23.0291 53.9368 23.6934 56.0746 22.8134C58.2125 21.9334 60.2405 22.2275 60.9135 22.7774C61.0507 22.8971 61.0765 22.9943 61.0789 23.2019C60.9877 23.8506 59.9894 25.0525 58.038 26.0391C57.5223 26.2801 56.8589 26.5604 56.2318 26.779C55.7525 26.9583 55.3586 27.0629 54.9648 27.1675C53.9802 27.4289 53.0578 27.7259 51.1814 28.7967C50.9119 28.9724 50.6294 29.0994 50.3962 29.2134C50.8473 28.7293 51.2856 28.1966 51.7238 27.6639C51.9183 27.404 51.8643 27.002 51.6028 26.8113C51.3413 26.6205 50.9838 26.6634 50.7401 26.9363C50.1073 27.7288 49.4617 28.4727 48.6918 29.1456C48.8088 28.5941 49.0606 27.9547 49.3488 27.2537C50.1405 25.274 50.3149 24.3429 50.4634 23.3147ZM51.2795 20.2356C51.2666 20.187 51.3158 20.1739 51.3029 20.1253C52.0688 18.0483 53.1422 16.9306 53.7951 16.8092C53.9428 16.77 54.0541 16.7925 54.1292 16.8767C54.1292 16.8767 54.1913 16.9122 54.2042 16.9608C54.753 17.4396 55.1427 19.1056 54.773 21.2855C53.5165 21.5151 52.3616 20.937 51.2795 20.2356ZM59.3869 17.8224C59.7234 18.0973 59.8081 19.0116 59.3537 20.2772C58.5507 20.2302 57.7243 20.2936 56.8382 20.5289C56.9036 19.7829 56.9198 19.05 56.8375 18.3433C58.0634 17.6014 59.0374 17.4988 59.3869 17.8224ZM56.8751 43.8865C57.2149 43.3799 57.3658 42.5592 56.5249 41.3773C56.696 41.2278 56.8671 41.0783 56.9761 40.8932C57.2432 40.51 57.2747 40.0333 57.1093 39.6088C56.5614 38.141 53.8426 36.8333 52.6902 36.4627C51.2529 36.0117 50.9188 35.9443 50.4371 35.9161C50.3878 35.9292 50.3878 35.9292 50.3257 35.8937C50.2014 35.8226 50.1264 35.7384 50.0021 35.6673C48.4849 34.7171 46.5812 34.4941 45.0083 35.1199C44.449 34.8001 43.8898 34.4802 43.2942 34.222C45.1262 33.5794 46.7201 32.6357 47.9202 31.7965C49.3139 31.6866 50.8271 31.2328 52.2006 30.4516C53.8438 29.4949 54.5822 29.2988 55.5175 29.0504C55.9114 28.9458 56.3544 28.8281 56.883 28.6357C57.6578 28.3779 58.3704 28.0846 58.9224 27.7819C61.291 26.5804 62.8648 24.9655 63.0448 23.4605C63.1465 22.6528 62.8907 21.888 62.2799 21.3737C62.0055 21.1343 61.6948 20.9566 61.3349 20.792C61.9426 18.9131 61.7756 17.2921 60.7532 16.4187C59.7178 15.4966 58.1014 15.5616 56.3469 16.4959C56.1322 16.0845 55.8813 15.7348 55.594 15.4468C54.9702 14.8838 54.1906 14.7266 53.403 14.9357C51.9261 15.3279 50.4766 17.0139 49.5549 19.4966C49.4225 19.7919 49.3523 20.1228 49.2692 20.4051C48.9003 21.596 48.7857 22.355 48.6452 23.0169C48.4838 23.9965 48.3199 24.7686 47.575 26.5278C46.9132 28.0046 46.6194 29.2796 46.5951 30.379C45.027 31.4199 42.819 32.6308 40.293 33.0414C36.9472 31.9522 33.3882 31.6483 29.9737 32.0867C30.9147 31.2643 31.8428 30.3933 32.6467 29.4512C34.5044 28.9058 36.3187 27.7995 37.7706 26.3211C39.6502 24.4688 40.6194 23.9512 41.809 23.271C42.3118 22.9813 42.8146 22.6917 43.4884 22.2525C44.3826 21.6508 45.2276 21.0621 45.912 20.464C48.564 18.1464 50.053 15.6172 49.8086 13.7044C49.698 12.6929 49.1211 11.9094 48.2148 11.4735C47.7306 11.2378 47.1609 11.0768 46.5185 11.0392C46.7954 8.31148 46.0797 6.21164 44.5028 5.4334C42.8638 4.61962 40.7728 5.27899 38.7584 7.2191C38.3315 6.60386 37.7957 6.17368 37.2493 5.90242C36.3431 5.46652 35.3924 5.45877 34.4724 5.9633C32.7179 6.89761 31.4645 9.52037 31.0729 13.0072C31.0285 13.4353 30.9841 13.8634 30.9889 14.2785C30.9098 15.9649 31.0203 16.9764 31.0557 17.9038C31.1582 19.2817 31.2324 20.3549 30.8312 23.0116C30.4615 25.1915 30.5066 26.949 30.9068 28.4561C28.8843 30.7626 26.3131 32.5904 23.4885 33.8609C23.3408 33.9001 22.8251 34.1412 22.7759 34.1543C21.1303 34.9035 19.5856 35.8341 18.1911 36.9331C18.1418 36.9462 17.066 37.8564 16.602 38.2919C15.2098 39.5983 13.9549 41.0245 12.9121 42.6545L12.645 43.0377L18.5772 27.6709C19.7128 26.5887 20.3617 25.0633 20.231 23.3806L20.7709 22.0402C22.3664 22.293 24.0273 21.7999 25.3234 20.7271L25.58 20.5029C27.1328 19.2058 27.8624 17.1905 27.5195 15.3039C27.4291 14.9636 27.204 14.7111 26.9062 14.5821C25.8652 14.234 24.8031 14.2038 23.7201 14.4914L25.1197 10.6328C27.0162 10.2333 28.6674 8.91004 29.4979 7.07615L29.6666 6.7191C30.606 4.70015 30.406 2.35928 29.1511 0.610783C28.9752 0.34524 28.6153 0.180605 28.2578 0.223502C26.0998 0.432268 24.2025 1.82086 23.2759 3.88843L23.1072 4.24548C22.2275 6.09244 22.3267 8.25192 23.333 9.85825L23.0214 10.6696C23.0085 10.621 22.9956 10.5724 22.9335 10.5368C22.0361 8.74543 20.2575 7.60441 18.3304 7.49167C17.96 7.48595 17.6412 7.67469 17.4467 7.93452C16.4039 9.56455 16.2804 11.6791 17.214 13.4088C17.2398 13.506 17.3278 13.6388 17.3536 13.736C18.0105 15.0188 19.1701 16.0119 20.4468 16.4535C19.5574 17.4704 19.0538 18.7491 19.019 20.0073C18.367 19.1396 17.5075 18.4831 16.4536 18.0865C16.1066 17.9704 15.762 18.0619 15.4924 18.2376C13.976 19.473 13.2956 21.4752 13.6643 23.459L13.7054 23.8124C13.9709 25.4073 14.9618 26.7575 16.391 27.5749L7.37725 50.7859L0.996555 60.495C0.693098 60.9399 0.798792 61.5364 1.2959 61.8207C1.74378 62.1181 2.33452 61.9612 2.63798 61.5163L9.055 51.7455C9.055 51.7455 9.055 51.7455 9.09131 51.6838L14.38 43.6178C15.7028 41.6532 17.2508 39.9411 19.0368 38.53C22.0292 37.8915 25.1532 37.9466 28.0616 38.5794C27.2125 40.9387 27.4537 43.6329 28.8505 45.9162L29.1402 46.4117C30.7388 49.0577 33.5843 50.6441 36.5582 50.5309C36.9286 50.5366 37.2474 50.3479 37.3797 50.0525C38.8559 47.4747 38.7317 44.2289 37.1331 41.5829L36.8435 41.0873C35.2578 38.4899 32.5237 36.9261 29.5732 36.929C27.3564 36.3207 25.0201 36.0564 22.7249 36.1454C23.0566 36.0053 24.0388 35.5363 24.2228 35.4354C30.3901 32.8608 37.6766 33.1116 43.7428 36.705C43.8243 38.4008 44.7684 39.9716 46.2985 40.9705C46.4227 41.0415 46.4978 41.1257 46.6091 41.1482C46.6221 41.1968 46.6221 41.1968 46.6842 41.2323C46.961 41.6793 47.1369 41.9448 48.1125 43.0388C48.9381 43.9646 51.2808 45.8405 52.8843 45.7269C53.4024 45.6934 53.7575 45.443 54.0246 45.0598C54.1336 44.8747 54.1933 44.7027 54.2531 44.5308C55.8614 44.8322 56.5224 44.3445 56.8751 43.8865Z" fill="#FFDBE3"/>
</svg>
