<svg width="27" height="25" viewBox="0 0 27 25" fill="none" xmlns="http://www.w3.org/2000/svg">
<path d="M13.5249 20.8004L13.3966 20.9287L13.2554 20.8004C7.16099 15.2705 3.13224 11.6138 3.13224 7.90584C3.13224 5.33976 5.0568 3.4152 7.62288 3.4152C9.59876 3.4152 11.5233 4.69824 12.2033 6.44318H14.5898C15.2698 4.69824 17.1944 3.4152 19.1702 3.4152C21.7363 3.4152 23.6609 5.33976 23.6609 7.90584C23.6609 11.6138 19.6321 15.2705 13.5249 20.8004ZM19.1702 0.849121C16.9378 0.849121 14.7951 1.88838 13.3966 3.51784C11.998 1.88838 9.85537 0.849121 7.62288 0.849121C3.67112 0.849121 0.566162 3.94125 0.566162 7.90584C0.566162 12.7429 4.9285 16.7075 11.5362 22.6993L13.3966 24.3929L15.257 22.6993C21.8646 16.7075 26.227 12.7429 26.227 7.90584C26.227 3.94125 23.122 0.849121 19.1702 0.849121Z" fill="#423B3C"/>
</svg>
