<svg width="275" height="87" viewBox="0 0 275 87" fill="none" xmlns="http://www.w3.org/2000/svg">
<path d="M65.797 69.7765C80.8489 54.9682 80.8489 30.9591 65.797 16.1507C50.745 1.34238 26.3409 1.34237 11.289 16.1507C-3.76299 30.9591 -3.76299 54.9682 11.289 69.7765C26.3409 84.5849 50.745 84.5849 65.797 69.7765Z" fill="#FF85A1"/>
<path d="M77.6824 17.5849C77.425 17.9647 77.425 18.4712 77.6181 18.851C77.8111 19.2308 78.2615 19.484 78.712 19.484C78.7763 19.484 78.8406 19.484 78.905 19.484C78.3259 20.2437 76.9746 21.4465 75.559 22.1428C74.2077 22.8392 73.886 22.9658 73.4999 23.0924C73.0495 22.6493 72.5347 22.2061 72.0843 21.6997C71.6339 21.1933 71.1835 20.6868 70.7974 20.1804C70.9261 19.8006 71.1191 19.484 71.9556 18.2179C72.7921 16.9519 74.1434 15.6858 74.9799 15.1793C74.9799 15.2426 74.9799 15.3692 74.9799 15.4958C74.9155 15.939 75.1086 16.4454 75.4947 16.6986C75.8807 16.9519 76.3955 16.9519 76.7816 16.7619C77.5537 16.3188 78.1328 16.1289 78.4546 16.0656C78.3902 16.3188 78.1972 16.8252 77.6824 17.5849ZM68.2235 25.1815C68.1592 24.1053 68.5453 23.0291 69.3174 22.1428C69.6391 22.5227 69.9609 22.9025 70.347 23.2823C70.6687 23.6622 71.0548 24.042 71.4408 24.3585C70.4113 25.0549 69.2531 25.3714 68.2235 25.1815ZM47.0537 36.5763C43.6433 35.1203 42.099 34.8671 40.2973 34.4873C39.5252 34.3606 38.6887 34.234 37.6591 33.9175C39.3321 31.3853 40.7477 28.3467 39.2034 24.6117C38.2382 22.2694 38.0452 19.9272 38.3669 18.1546C38.3669 18.0913 38.4313 18.028 38.4313 17.9647C38.6243 17.0785 38.946 16.3821 39.3321 15.939C39.6539 15.6225 39.9756 15.4958 40.426 15.5591C41.7773 15.7491 43.9007 17.5216 45.638 21.0667C46.0885 22.0162 46.5389 23.0924 46.925 24.2319C47.2467 25.0549 47.3754 25.7512 47.5684 26.4476C48.0189 28.1568 48.4693 29.6761 50.271 32.778C50.8501 33.7276 51.3005 34.8038 51.5579 35.8167C50.3997 34.5506 49.1127 33.4111 47.6971 32.3349C47.3754 32.0817 46.8606 32.145 46.6032 32.4615C46.3459 32.778 46.4102 33.2845 46.7319 33.5377C48.4049 34.8038 49.9492 36.2598 51.3005 37.9057C50.1423 37.7158 48.7267 37.2727 47.0537 36.5763ZM35.1496 33.2212C34.9566 33.1579 34.7635 33.0946 34.5705 33.0312C30.8384 31.6385 28.908 29.6761 28.522 28.41C28.2646 27.6503 28.908 27.2072 28.9724 27.1439C30.1306 26.131 33.1549 25.5613 37.1444 26.2576C37.9165 28.9164 36.6296 31.1321 35.1496 33.2212ZM30.5811 18.4712C31.3532 17.5849 33.4123 17.6482 35.7931 18.5978C35.6 20.1804 35.7931 21.9529 36.2435 23.6622C34.5705 23.4722 32.9619 23.4722 31.6106 23.6622C30.195 21.4465 29.7446 19.4207 30.5811 18.4712ZM71.3122 39.6149L72.02 39.425C72.9208 39.1718 73.8216 39.0452 74.7225 39.1085C73.6929 41.2609 71.6339 42.9701 69.1244 43.6664C67.9018 43.983 66.9366 44.2362 65.9071 44.2362C66.8079 42.0205 68.8027 40.3113 71.3122 39.6149ZM73.886 45.8821L73.1782 46.072C71.0548 46.6418 68.867 46.5152 67.0653 45.6289C67.8375 45.5023 68.6096 45.3124 69.4461 45.1225C71.0548 44.6793 72.4704 43.8564 73.6286 42.8435C74.7225 41.8306 75.6233 40.6278 76.1381 39.2984C77.3607 39.5516 78.4546 40.0581 79.4198 40.8177C78.712 43.16 76.5885 45.1225 73.886 45.8821ZM39.3321 49.6804C38.0452 49.3639 36.9513 48.4776 36.3722 47.2115V47.1482C36.3722 47.1482 36.3722 47.0849 36.3079 47.0849L36.1792 46.8317C35.6 45.5656 35.5357 44.1729 36.0505 43.0334C37.3374 43.3499 38.4313 44.2362 39.0104 45.5023L39.2034 45.8821C39.8469 47.0849 39.8469 48.4776 39.3321 49.6804ZM45.3807 55.7576C44.4155 56.7072 43.1285 57.2136 41.7773 57.1503L41.3269 57.087C39.9112 56.9604 38.6887 56.2641 37.9165 55.2512C38.8174 54.3649 40.1686 53.8585 41.5842 53.9851C41.5842 53.9851 42.292 54.0484 42.4207 54.0484C42.4207 54.0484 42.4207 54.0484 42.4851 54.0484C43.7077 54.3016 44.7372 54.8714 45.3807 55.7576ZM26.4629 41.3242C24.9186 41.6407 23.2456 41.2609 21.9587 40.1847L21.5726 39.8682C20.2857 38.792 19.5135 37.2727 19.5135 35.7534C21.0578 35.4368 22.7308 35.8167 24.0177 36.8928L24.4038 37.2094C25.7551 38.2222 26.4629 39.8049 26.4629 41.3242ZM29.7445 49.6171C29.6159 49.6171 29.4872 49.6804 29.3585 49.6804C28.0072 49.9969 26.5916 49.6804 25.562 48.9207C26.1412 47.7812 27.2994 46.9583 28.715 46.6418C28.7794 46.6418 28.908 46.5785 28.9724 46.5785H29.1011C30.4524 46.2619 31.6749 46.7684 32.8332 47.4647C32.1897 48.5409 31.0958 49.3006 29.7445 49.6171ZM52.9735 15.3059C52.5874 15.116 52.137 14.9261 51.6222 14.6729C53.1665 13.2169 54.5822 11.2544 54.1961 8.40572C53.81 5.557 54.8395 3.21473 55.7404 2.58168C55.9334 2.45507 56.0621 2.45507 56.3195 2.51838C57.0917 2.8349 58.2499 4.41752 58.829 7.07632C58.9577 7.77267 59.0864 8.65893 59.1507 9.4819C59.2151 10.1149 59.2151 10.6214 59.2151 11.1278C59.2151 12.3939 59.2794 13.5967 59.9872 16.1922C60.1159 16.572 60.1803 16.9519 60.2446 17.2684C59.7942 16.572 59.2794 15.8757 58.7647 15.1793C58.5073 14.8628 57.9925 14.7995 57.6708 15.0527C57.349 15.3059 57.2847 15.7491 57.5421 16.1289C58.3142 17.1418 59.022 18.1546 59.6012 19.2941C58.9577 18.9776 58.2499 18.4712 57.4777 17.9014C55.29 16.3188 54.1961 15.8124 52.9735 15.3059ZM49.4345 13.3435C49.3701 13.3435 49.3701 13.2802 49.3058 13.2802C46.9893 11.6976 45.9598 10.0516 46.0241 9.22868C46.0241 9.03876 46.0885 8.91215 46.2172 8.84885C46.2172 8.84885 46.2815 8.78554 46.3459 8.78554C47.118 8.27911 49.3058 8.34241 51.8796 9.4819C51.7509 11.0645 50.657 12.2673 49.4345 13.3435ZM49.1127 2.8349C49.5632 2.51838 50.7214 2.70829 52.137 3.65786C51.8153 4.60743 51.6222 5.62031 51.6222 6.75979C50.7214 6.44327 49.8205 6.19005 48.9197 6.06344C48.4049 4.35421 48.598 3.15142 49.1127 2.8349ZM80.5136 14.1664C79.9989 13.5967 79.0337 13.1536 77.2963 13.7866C77.1676 13.5334 77.039 13.2802 76.8459 13.0903C76.4598 12.6471 75.8807 12.4572 75.3016 12.5205C73.3069 12.7104 70.7974 15.5591 69.9609 16.8252C68.9313 18.4079 68.7383 18.7877 68.5453 19.3574C68.5453 19.4207 68.5453 19.4207 68.4809 19.484C68.3522 19.6107 68.2235 19.674 68.0948 19.8006C66.4219 21.3199 65.521 23.5355 65.7784 25.6246C65.1993 26.1943 64.6201 26.7641 64.1054 27.3971C63.9123 24.9916 63.2689 22.7759 62.6254 21.0667C62.9472 19.3574 62.8828 17.395 62.368 15.4958C61.7246 13.2169 61.7246 12.2673 61.7246 11.0645C61.7246 10.5581 61.7246 9.98833 61.6602 9.29198C61.5959 8.27911 61.4672 7.32954 61.2742 6.56988C60.5663 3.34134 59.0864 0.93576 57.2847 0.239408C56.3195 -0.14042 55.29 -0.0771156 54.4535 0.492627C54.0674 0.745846 53.7457 1.06237 53.4239 1.4422C51.3005 0.112799 49.2414 -0.203725 47.8258 0.745846C46.3459 1.69542 45.8954 3.65786 46.4745 6.06344C45.8954 6.19005 45.3807 6.37996 44.9302 6.63318C44.0294 7.20293 43.579 8.08919 43.579 9.10207C43.579 11.0012 45.1876 13.2802 47.9545 15.1793C48.2762 15.4325 48.6623 15.6225 48.984 15.8124C50.3353 16.6353 51.2362 17.0152 52.0083 17.395C53.1665 17.9014 54.0674 18.3446 55.9978 19.8006C57.6064 21.0667 59.0864 21.8263 60.4377 22.2061C61.2098 24.4218 61.982 27.4604 61.6602 30.6257C59.2151 34.2973 57.6708 38.4755 57.0917 42.7169C56.3839 41.3242 55.6117 39.9315 54.7108 38.6654C54.6465 36.2598 53.8743 33.7276 52.5231 31.5119C50.8501 28.6632 50.5284 27.3338 50.0779 25.6879C49.8849 24.9916 49.6918 24.2952 49.3701 23.3456C48.9197 22.0795 48.4693 20.8767 47.9545 19.8639C45.9598 15.939 43.3216 13.3435 40.8764 13.027C39.5895 12.837 38.4313 13.2802 37.5948 14.2298C37.1444 14.7362 36.7583 15.3692 36.5009 16.1289C33.2192 14.9261 30.388 15.116 28.908 16.7619C27.3637 18.4712 27.4924 21.1933 29.2298 24.2319C28.3289 24.5484 27.6211 25.0549 27.1064 25.6246C26.2699 26.5742 25.9481 27.7137 26.2699 28.9797C26.849 31.3853 29.6802 33.7276 33.8627 35.3102C34.3775 35.5001 34.8922 35.69 35.407 35.8167C37.4661 36.4497 38.753 36.6396 39.9112 36.8928C41.6486 37.2094 42.9998 37.4626 46.1528 38.792C48.7267 39.9315 50.9144 40.4379 52.9092 40.4379C55.0969 43.6031 56.5125 47.2748 57.156 51.0731C57.156 51.263 57.2847 51.9594 57.2847 52.0227C57.6708 54.2383 58.3142 56.3907 59.2151 58.4164C59.2151 58.4797 59.9872 60.0624 60.3733 60.7587C61.5315 62.8478 62.8828 64.8102 64.5558 66.5827L64.9419 67.0259L47.8902 54.998C46.925 53.2888 45.252 52.0227 43.1285 51.6428L41.6486 50.5667C42.4851 48.7308 42.4207 46.5785 41.5199 44.6793L41.3269 44.2995C40.233 42.0205 37.9809 40.5012 35.5357 40.3113C35.0853 40.3113 34.6992 40.5012 34.4418 40.8177C33.6697 41.9572 33.2836 43.2233 33.2836 44.616L28.9724 41.704C29.1011 39.2984 28.0072 36.8928 26.0125 35.3102L25.6264 34.9937C23.4386 33.2212 20.4787 32.7147 17.9049 33.6643C17.5188 33.7909 17.1971 34.1707 17.1327 34.6139C16.6823 37.2727 17.7762 39.9948 20.0283 41.7673L20.4144 42.0838C22.4091 43.7298 25.1116 44.2995 27.4281 43.6031L28.3289 44.2362C28.2646 44.2362 28.2002 44.2362 28.1359 44.2995C25.6264 44.8059 23.6317 46.5785 22.8595 48.8574C22.7308 49.3006 22.8595 49.7437 23.1169 50.0602C24.7899 51.8328 27.3637 52.6557 29.8089 52.086C29.9376 52.086 30.1306 52.0227 30.2593 52.0227C32.061 51.6428 33.6697 50.5667 34.6349 49.174C35.6 50.5667 37.0157 51.5795 38.56 52.0227C37.273 52.5291 36.1792 53.3521 35.3427 54.4916C35.0853 54.8714 35.0853 55.3145 35.214 55.6943C36.2435 57.91 38.4956 59.366 41.0695 59.5559L41.5199 59.6192C43.579 59.8091 45.5737 59.0495 47.0537 57.5935L72.7921 75.8252L82.7014 86.587C83.1518 87.0935 83.924 87.1568 84.4388 86.6503C84.9535 86.2072 84.9535 85.4476 84.5031 84.9411L74.5295 74.116C74.5295 74.116 74.5295 74.116 74.4651 74.0527L66.2288 65.1267C64.2341 62.9111 62.6254 60.5055 61.4672 57.91C61.6602 54.1117 62.7541 50.3767 64.4915 47.0849C67.1296 48.8574 70.54 49.4272 73.8216 48.4776L74.5295 48.2877C78.3259 47.2115 81.2215 44.2995 82.058 40.6911C82.1866 40.248 82.058 39.8049 81.7362 39.5516C79.0337 36.9561 74.9799 36.0699 71.1835 37.1461L70.4756 37.336C66.7436 38.4122 63.9123 41.1976 62.9472 44.7426C61.4672 47.2115 60.3733 49.9336 59.7298 52.719C59.6655 52.2759 59.4081 50.9465 59.3438 50.6933C58.1855 42.4637 60.8881 33.7909 67.3227 27.6503C69.4461 28.0935 71.6982 27.4604 73.4356 25.9411C73.5643 25.8145 73.693 25.7512 73.7573 25.6246C73.8217 25.6246 73.8217 25.6246 73.886 25.5613C74.5295 25.3714 74.9155 25.2448 76.5885 24.4218C78.0041 23.7255 81.0928 21.5098 81.4788 19.5473C81.6075 18.9143 81.4145 18.4079 81.0284 17.9647C80.8354 17.7748 80.6423 17.6482 80.4493 17.5216C81.3502 15.6858 80.9641 14.7362 80.5136 14.1664Z" fill="#423B3C"/>
<path d="M99.9227 35.1607V17.8472H102.266V35.1607H99.9227ZM101.518 27.5517V25.4063H110.542V27.5517H101.518ZM101.518 19.9927V17.8472H110.965V19.9927H101.518Z" fill="#423B3C"/>
<path d="M113.643 35.1607V17.3482H115.886V35.1607H113.643Z" fill="#423B3C"/>
<path d="M124.578 35.4102C123.415 35.4102 122.368 35.1358 121.437 34.5869C120.506 34.0381 119.767 33.298 119.218 32.3666C118.67 31.4186 118.396 30.3625 118.396 29.1983C118.396 28.0507 118.67 27.0195 119.218 26.1048C119.767 25.1734 120.506 24.4333 121.437 23.8845C122.368 23.3356 123.415 23.0612 124.578 23.0612C125.724 23.0612 126.763 23.3356 127.694 23.8845C128.641 24.4167 129.389 25.1485 129.937 26.0798C130.486 27.0112 130.76 28.0507 130.76 29.1983C130.76 30.3625 130.486 31.4186 129.937 32.3666C129.389 33.298 128.641 34.0381 127.694 34.5869C126.763 35.1358 125.724 35.4102 124.578 35.4102ZM124.578 33.2398C125.326 33.2398 125.99 33.0651 126.572 32.7159C127.154 32.3666 127.611 31.8926 127.943 31.2939C128.275 30.6785 128.442 29.98 128.442 29.1983C128.442 28.4332 128.267 27.7513 127.918 27.1526C127.586 26.5538 127.129 26.0882 126.547 25.7555C125.982 25.4063 125.326 25.2316 124.578 25.2316C123.83 25.2316 123.165 25.4063 122.584 25.7555C122.002 26.0882 121.545 26.5538 121.213 27.1526C120.88 27.7513 120.714 28.4332 120.714 29.1983C120.714 29.98 120.88 30.6785 121.213 31.2939C121.545 31.8926 122.002 32.3666 122.584 32.7159C123.165 33.0651 123.83 33.2398 124.578 33.2398Z" fill="#423B3C"/>
<path d="M136.337 35.1607L131.65 23.3107H133.994L137.384 32.5412H136.636L140.001 23.3107H141.297L144.662 32.5412H143.915L147.305 23.3107H149.648L144.987 35.1607H143.665L140.25 26.2046H141.073L137.633 35.1607H136.337Z" fill="#423B3C"/>
<path d="M156.785 35.4102C155.605 35.4102 154.542 35.1441 153.595 34.6119C152.647 34.063 151.9 33.3229 151.351 32.3915C150.803 31.4602 150.529 30.4041 150.529 29.2232C150.529 28.059 150.794 27.0112 151.326 26.0798C151.875 25.1485 152.606 24.4167 153.52 23.8845C154.45 23.3356 155.489 23.0612 156.636 23.0612C157.732 23.0612 158.696 23.3107 159.527 23.8096C160.375 24.3086 161.031 24.9988 161.496 25.8803C161.978 26.7617 162.219 27.7596 162.219 28.874C162.219 29.0403 162.211 29.2232 162.194 29.4228C162.178 29.6057 162.145 29.822 162.095 30.0714H152.099V28.2004H160.898L160.076 28.9239C160.076 28.1255 159.934 27.452 159.652 26.9031C159.369 26.3376 158.971 25.9052 158.455 25.6058C157.94 25.2898 157.317 25.1318 156.586 25.1318C155.821 25.1318 155.148 25.2982 154.567 25.6308C153.985 25.9634 153.536 26.4291 153.221 27.0278C152.905 27.6266 152.747 28.3334 152.747 29.1484C152.747 29.98 152.913 30.7118 153.246 31.3438C153.578 31.9591 154.052 32.4414 154.666 32.7907C155.281 33.1233 155.988 33.2897 156.785 33.2897C157.45 33.2897 158.057 33.1732 158.605 32.9404C159.17 32.7076 159.652 32.3583 160.051 31.8926L161.496 33.3645C160.931 34.0298 160.233 34.537 159.403 34.8863C158.588 35.2356 157.716 35.4102 156.785 35.4102Z" fill="#423B3C"/>
<path d="M164.666 35.1607V23.3107H166.909V35.1607H164.666ZM166.909 28.4L166.061 28.0257C166.061 26.5123 166.41 25.3065 167.108 24.4084C167.806 23.5103 168.812 23.0612 170.125 23.0612C170.723 23.0612 171.263 23.1693 171.745 23.3855C172.227 23.5851 172.675 23.926 173.091 24.4084L171.62 25.9302C171.371 25.6641 171.097 25.4728 170.798 25.3564C170.498 25.2399 170.149 25.1817 169.751 25.1817C168.92 25.1817 168.238 25.4478 167.707 25.9801C167.175 26.5123 166.909 27.3189 166.909 28.4Z" fill="#423B3C"/>
<path d="M182.263 28.4249V26.3792H186.974C187.622 26.3792 188.196 26.2462 188.694 25.9801C189.209 25.7139 189.608 25.3397 189.891 24.8574C190.19 24.3751 190.339 23.8013 190.339 23.136C190.339 22.4708 190.19 21.897 189.891 21.4147C189.608 20.9324 189.209 20.5581 188.694 20.292C188.196 20.0259 187.622 19.8929 186.974 19.8929H182.263V17.8472H187.124C188.187 17.8472 189.134 18.0634 189.965 18.4958C190.813 18.9282 191.478 19.5436 191.96 20.3419C192.458 21.1236 192.707 22.055 192.707 23.136C192.707 24.2005 192.458 25.1318 191.96 25.9302C191.478 26.7118 190.813 27.3272 189.965 27.7763C189.134 28.2087 188.187 28.4249 187.124 28.4249H182.263ZM180.692 35.1607V17.8472H183.036V35.1607H180.692Z" fill="#423B3C"/>
<path d="M199.764 35.4102C198.684 35.4102 197.704 35.1441 196.823 34.6119C195.942 34.063 195.244 33.3229 194.729 32.3915C194.23 31.4602 193.981 30.4124 193.981 29.2482C193.981 28.084 194.23 27.0362 194.729 26.1048C195.244 25.1734 195.934 24.4333 196.798 23.8845C197.679 23.3356 198.667 23.0612 199.764 23.0612C200.662 23.0612 201.459 23.2525 202.157 23.635C202.872 24.0009 203.445 24.5165 203.877 25.1817C204.309 25.8304 204.55 26.5871 204.6 27.452V31.0194C204.55 31.8677 204.309 32.6244 203.877 33.2897C203.462 33.9549 202.897 34.4788 202.182 34.8613C201.484 35.2272 200.678 35.4102 199.764 35.4102ZM200.138 33.2897C201.252 33.2897 202.149 32.9154 202.83 32.167C203.512 31.402 203.852 30.429 203.852 29.2482C203.852 28.4332 203.694 27.7264 203.379 27.1276C203.08 26.5123 202.648 26.0383 202.082 25.7056C201.517 25.3564 200.861 25.1817 200.113 25.1817C199.365 25.1817 198.701 25.3564 198.119 25.7056C197.554 26.0549 197.105 26.5372 196.773 27.1526C196.457 27.7513 196.299 28.4415 196.299 29.2232C196.299 30.0215 196.457 30.7284 196.773 31.3438C197.105 31.9425 197.562 32.4165 198.144 32.7658C198.726 33.115 199.39 33.2897 200.138 33.2897ZM203.703 35.1607V31.9674L204.127 29.0735L203.703 26.2046V23.3107H205.971V35.1607H203.703Z" fill="#423B3C"/>
<path d="M209.237 35.1607V23.3107H211.481V35.1607H209.237ZM211.481 28.4L210.633 28.0257C210.633 26.5123 210.982 25.3065 211.68 24.4084C212.378 23.5103 213.384 23.0612 214.696 23.0612C215.295 23.0612 215.835 23.1693 216.317 23.3855C216.799 23.5851 217.247 23.926 217.663 24.4084L216.192 25.9302C215.943 25.6641 215.669 25.4728 215.369 25.3564C215.07 25.2399 214.721 25.1817 214.322 25.1817C213.492 25.1817 212.81 25.4478 212.278 25.9801C211.747 26.5123 211.481 27.3189 211.481 28.4Z" fill="#423B3C"/>
<path d="M223.888 35.4102C222.808 35.4102 221.827 35.1441 220.947 34.6119C220.066 34.063 219.368 33.3229 218.853 32.3915C218.354 31.4602 218.105 30.4124 218.105 29.2482C218.105 28.084 218.354 27.0362 218.853 26.1048C219.368 25.1734 220.058 24.4333 220.922 23.8845C221.803 23.3356 222.791 23.0612 223.888 23.0612C224.785 23.0612 225.583 23.2525 226.281 23.635C226.996 24.0009 227.569 24.5165 228.001 25.1817C228.433 25.8304 228.674 26.5871 228.724 27.452V31.0194C228.674 31.8677 228.433 32.6244 228.001 33.2897C227.586 33.9549 227.021 34.4788 226.306 34.8613C225.608 35.2272 224.802 35.4102 223.888 35.4102ZM224.262 33.2897C225.375 33.2897 226.273 32.9154 226.954 32.167C227.635 31.402 227.976 30.429 227.976 29.2482C227.976 28.4332 227.818 27.7264 227.503 27.1276C227.203 26.5123 226.771 26.0383 226.206 25.7056C225.641 25.3564 224.985 25.1817 224.237 25.1817C223.489 25.1817 222.825 25.3564 222.243 25.7056C221.678 26.0549 221.229 26.5372 220.897 27.1526C220.581 27.7513 220.423 28.4415 220.423 29.2232C220.423 30.0215 220.581 30.7284 220.897 31.3438C221.229 31.9425 221.686 32.4165 222.268 32.7658C222.849 33.115 223.514 33.2897 224.262 33.2897ZM227.827 35.1607V31.9674L228.25 29.0735L227.827 26.2046V23.3107H230.095V35.1607H227.827Z" fill="#423B3C"/>
<path d="M238.372 35.4102C237.275 35.4102 236.294 35.1441 235.43 34.6119C234.566 34.063 233.876 33.3229 233.361 32.3915C232.863 31.4602 232.613 30.4124 232.613 29.2482C232.613 28.084 232.863 27.0362 233.361 26.1048C233.876 25.1734 234.566 24.4333 235.43 23.8845C236.294 23.3356 237.275 23.0612 238.372 23.0612C239.252 23.0612 240.05 23.2525 240.765 23.635C241.479 24.0009 242.052 24.5165 242.484 25.1817C242.933 25.8304 243.182 26.5871 243.232 27.452V31.0194C243.182 31.8677 242.941 32.6244 242.509 33.2897C242.077 33.9549 241.504 34.4788 240.789 34.8613C240.075 35.2272 239.269 35.4102 238.372 35.4102ZM238.745 33.2897C239.493 33.2897 240.141 33.115 240.69 32.7658C241.255 32.4165 241.695 31.9425 242.011 31.3438C242.327 30.7284 242.484 30.0299 242.484 29.2482C242.484 28.4332 242.318 27.7264 241.986 27.1276C241.67 26.5289 241.23 26.0549 240.665 25.7056C240.116 25.3564 239.468 25.1817 238.721 25.1817C237.973 25.1817 237.316 25.3564 236.751 25.7056C236.186 26.0549 235.738 26.5372 235.405 27.1526C235.089 27.7513 234.932 28.4415 234.932 29.2232C234.932 30.0215 235.089 30.7284 235.405 31.3438C235.738 31.9425 236.186 32.4165 236.751 32.7658C237.333 33.115 237.998 33.2897 238.745 33.2897ZM244.603 35.1607H242.335V31.9674L242.759 29.0735L242.335 26.2046V17.3482H244.603V35.1607Z" fill="#423B3C"/>
<path d="M247.894 35.1607V23.3107H250.138V35.1607H247.894ZM249.016 20.9407C248.601 20.9407 248.26 20.8076 247.994 20.5415C247.728 20.2588 247.595 19.9095 247.595 19.4937C247.595 19.0946 247.728 18.7619 247.994 18.4958C248.26 18.2131 248.601 18.0717 249.016 18.0717C249.432 18.0717 249.772 18.2131 250.038 18.4958C250.304 18.7619 250.437 19.0946 250.437 19.4937C250.437 19.9095 250.304 20.2588 250.038 20.5415C249.772 20.8076 249.432 20.9407 249.016 20.9407Z" fill="#423B3C"/>
<path d="M257.208 35.4102C256.543 35.4102 255.912 35.327 255.314 35.1607C254.732 34.9778 254.192 34.7283 253.693 34.4123C253.195 34.0797 252.763 33.6888 252.397 33.2398L253.843 31.7928C254.275 32.325 254.774 32.7242 255.339 32.9903C255.904 33.2398 256.535 33.3645 257.233 33.3645C257.931 33.3645 258.471 33.2481 258.853 33.0152C259.235 32.7658 259.427 32.4248 259.427 31.9924C259.427 31.56 259.269 31.2273 258.953 30.9945C258.654 30.745 258.263 30.5454 257.781 30.3958C257.299 30.2294 256.784 30.0714 256.236 29.9217C255.704 29.7554 255.197 29.5475 254.715 29.2981C254.233 29.0486 253.835 28.7076 253.519 28.2752C253.22 27.8428 253.07 27.269 253.07 26.5538C253.07 25.8387 253.245 25.2233 253.594 24.7077C253.943 24.1755 254.425 23.768 255.039 23.4853C255.671 23.2026 256.427 23.0612 257.308 23.0612C258.238 23.0612 259.061 23.2275 259.776 23.5602C260.507 23.8762 261.105 24.3585 261.57 25.0071L260.125 26.4541C259.792 26.0216 259.377 25.689 258.878 25.4562C258.396 25.2233 257.848 25.1069 257.233 25.1069C256.585 25.1069 256.086 25.2233 255.737 25.4562C255.405 25.6724 255.239 25.9801 255.239 26.3792C255.239 26.7784 255.388 27.0861 255.688 27.3023C255.987 27.5185 256.377 27.7014 256.859 27.8511C257.358 28.0008 257.873 28.1588 258.405 28.3251C258.936 28.4748 259.443 28.6827 259.925 28.9488C260.407 29.2149 260.798 29.5725 261.097 30.0215C261.412 30.4706 261.57 31.061 261.57 31.7928C261.57 32.9071 261.172 33.7886 260.374 34.4372C259.593 35.0859 258.538 35.4102 257.208 35.4102Z" fill="#423B3C"/>
<path d="M269.566 35.4102C268.386 35.4102 267.322 35.1441 266.375 34.6119C265.428 34.063 264.68 33.3229 264.132 32.3915C263.583 31.4602 263.309 30.4041 263.309 29.2232C263.309 28.059 263.575 27.0112 264.107 26.0798C264.655 25.1485 265.386 24.4167 266.3 23.8845C267.231 23.3356 268.27 23.0612 269.416 23.0612C270.513 23.0612 271.477 23.3107 272.308 23.8096C273.155 24.3086 273.812 24.9988 274.277 25.8803C274.759 26.7617 275 27.7596 275 28.874C275 29.0403 274.992 29.2232 274.975 29.4228C274.958 29.6057 274.925 29.822 274.875 30.0714H264.88V28.2004H273.679L272.856 28.9239C272.856 28.1255 272.715 27.452 272.433 26.9031C272.15 26.3376 271.751 25.9052 271.236 25.6058C270.721 25.2898 270.098 25.1318 269.366 25.1318C268.602 25.1318 267.929 25.2982 267.347 25.6308C266.766 25.9634 266.317 26.4291 266.001 27.0278C265.686 27.6266 265.528 28.3334 265.528 29.1484C265.528 29.98 265.694 30.7118 266.026 31.3438C266.359 31.9591 266.832 32.4414 267.447 32.7907C268.062 33.1233 268.768 33.2897 269.566 33.2897C270.231 33.2897 270.837 33.1732 271.386 32.9404C271.951 32.7076 272.432 32.3583 272.831 31.8926L274.277 33.3645C273.712 34.0298 273.014 34.537 272.183 34.8863C271.369 35.2356 270.496 35.4102 269.566 35.4102Z" fill="#423B3C"/>
<path d="M103.687 54.7759C104.9 54.1938 106.03 53.9027 107.077 53.9027C108.124 53.9027 108.863 54.1106 109.295 54.5264C109.794 54.8923 110.043 55.3497 110.043 55.8985C110.043 56.3309 109.902 56.7135 109.619 57.0461C109.005 57.7114 108.049 58.044 106.753 58.044C106.221 58.044 105.631 57.9276 104.983 57.6947C104.335 57.4453 103.778 57.1459 103.313 56.7966C101.9 57.7612 101.194 59.0668 101.194 60.7134C101.194 61.8277 101.684 62.8588 102.665 63.8068C103.645 64.7382 104.975 65.2039 106.653 65.2039C108.348 65.2039 109.653 64.8463 110.567 64.1312C111.481 63.416 112.062 63.0584 112.312 63.0584C112.777 63.0584 113.009 63.2746 113.009 63.7071C113.009 64.073 112.744 64.5054 112.212 65.0043C111.68 65.5033 110.907 65.9523 109.894 66.3515C108.897 66.7506 107.866 66.9502 106.803 66.9502C104.459 66.9502 102.598 66.3349 101.219 65.1041C99.8729 63.8567 99.1999 62.468 99.1999 60.9379C99.1999 58.7093 100.172 56.9546 102.116 55.674C101.202 54.7426 100.745 53.5701 100.745 52.1564C100.745 50.7427 101.302 49.6118 102.415 48.7635C103.545 47.9153 104.817 47.4912 106.229 47.4912C107.642 47.4912 108.88 47.7573 109.943 48.2895C111.007 48.8051 111.539 49.3789 111.539 50.0109C111.539 50.4101 111.373 50.6762 111.04 50.8092C110.941 50.8259 110.791 50.8342 110.592 50.8342C110.409 50.8342 110.126 50.7094 109.744 50.46C108.664 49.645 107.575 49.2375 106.479 49.2375C105.398 49.2375 104.501 49.4953 103.786 50.0109C102.989 50.5099 102.59 51.2832 102.59 52.331C102.59 53.3622 102.956 54.1771 103.687 54.7759ZM104.958 55.7738L104.684 55.8985C105.265 56.3309 105.997 56.5471 106.877 56.5471C107.758 56.5471 108.199 56.3392 108.199 55.9235C108.199 55.5742 107.791 55.3996 106.977 55.3996C106.163 55.3996 105.49 55.5243 104.958 55.7738Z" fill="#423B3C"/>
<path d="M119.943 63.4825L121.24 59.915C121.439 59.3828 121.738 58.4847 122.137 57.2207C122.536 55.9567 122.81 55.1335 122.959 54.7509C123.192 54.1522 123.516 53.8528 123.932 53.8528C124.181 53.8528 124.389 53.936 124.555 54.1023C124.738 54.252 124.829 54.4432 124.829 54.6761C124.829 54.8923 124.779 55.1251 124.679 55.3746C124.596 55.6241 124.513 55.8403 124.43 56.0232C124.364 56.1896 124.272 56.4307 124.156 56.7467C124.04 57.0461 123.898 57.4037 123.732 57.8195C123.566 58.2353 123.101 59.4993 122.336 61.6115C121.589 63.7237 121.04 65.1207 120.691 65.8026C120.342 66.4845 119.877 66.8255 119.295 66.8255C118.73 66.8255 118.298 66.5261 117.999 65.9274C117.899 65.7444 117.467 64.6467 116.703 62.6343L115.207 58.7176C114.609 57.1875 114.235 56.2145 114.085 55.7987C113.936 55.3663 113.861 55.017 113.861 54.7509C113.861 54.4682 113.944 54.252 114.11 54.1023C114.277 53.936 114.484 53.8528 114.734 53.8528C115.182 53.8528 115.523 54.1439 115.756 54.726C115.905 55.1085 116.146 55.8403 116.478 56.9214L117.949 61.1125C118.464 62.5761 118.805 63.5158 118.971 63.9316C119.137 64.3474 119.254 64.5636 119.32 64.5802C119.453 64.5802 119.661 64.2143 119.943 63.4825Z" fill="#423B3C"/>
<path d="M133.288 55.3497C132.191 55.3497 131.269 55.7655 130.521 56.597C129.79 57.412 129.308 58.3683 129.075 59.466C129.973 59.7321 130.978 59.8652 132.092 59.8652C133.222 59.8652 134.127 59.6739 134.809 59.2914C135.49 58.9088 135.831 58.3849 135.831 57.7197C135.831 57.0544 135.598 56.4972 135.133 56.0482C134.684 55.5825 134.069 55.3497 133.288 55.3497ZM132.216 61.4368C131.352 61.4368 130.297 61.3121 129.05 61.0626C129.15 62.2435 129.582 63.2497 130.347 64.0813C131.128 64.9129 132.033 65.3286 133.064 65.3286C134.094 65.3286 134.942 65.0792 135.606 64.5802C136.271 64.0646 136.703 63.8068 136.903 63.8068C137.119 63.8068 137.285 63.8734 137.401 64.0064C137.534 64.1229 137.6 64.2725 137.6 64.4555C137.6 64.9212 137.119 65.4534 136.155 66.0521C135.207 66.6509 134.177 66.9502 133.064 66.9502C131.335 66.9502 129.956 66.3432 128.926 65.1291C127.912 63.8983 127.372 62.4347 127.306 60.7383C126.425 60.4556 125.984 60.0232 125.984 59.441C125.984 59.0585 126.126 58.809 126.408 58.6926C126.508 58.6594 126.633 58.6427 126.782 58.6427C126.948 58.6427 127.173 58.7176 127.455 58.8673C127.837 57.3538 128.527 56.123 129.524 55.175C130.538 54.2104 131.718 53.7281 133.064 53.7281C134.426 53.7281 135.523 54.1023 136.354 54.8507C137.185 55.5991 137.6 56.5804 137.6 57.7945C137.6 58.992 137.085 59.8984 136.055 60.5138C135.025 61.1292 133.745 61.4368 132.216 61.4368Z" fill="#423B3C"/>
<path d="M151.187 58.7176L151.063 62.6343V63.7071C151.096 64.389 151.262 64.7964 151.561 64.9295C151.678 64.9628 151.811 64.996 151.96 65.0293C152.11 65.0459 152.209 65.0708 152.259 65.1041C152.326 65.1374 152.359 65.2039 152.359 65.3037C152.359 65.7361 152.218 66.102 151.935 66.4014C151.669 66.6841 151.354 66.8255 150.988 66.8255C150.373 66.8255 149.941 66.5843 149.692 66.102C149.442 65.6197 149.318 64.8796 149.318 63.8817L149.417 59.2914C149.417 58.1438 149.168 57.229 148.67 56.5471C148.188 55.8486 147.523 55.4993 146.676 55.4993C145.828 55.4993 145.005 55.9734 144.208 56.9214C143.427 57.8527 142.87 58.9255 142.538 60.1396L142.612 65.5532C142.612 66.4014 142.297 66.8255 141.665 66.8255C140.901 66.8255 140.519 66.26 140.519 65.1291C140.519 63.9815 140.685 62.3183 141.017 60.1396C141.017 59.441 140.942 58.4598 140.793 57.1958C140.66 55.9318 140.593 55.1667 140.593 54.9006C140.593 54.6345 140.685 54.3933 140.868 54.1771C141.05 53.9609 141.283 53.8528 141.565 53.8528C141.848 53.8528 142.081 53.9609 142.263 54.1771C142.446 54.3933 142.538 54.6262 142.538 54.8757C142.538 55.1251 142.529 55.4993 142.513 55.9983C142.513 56.4972 142.513 56.8382 142.513 57.0211C143.726 54.9089 145.221 53.8528 147 53.8528C148.329 53.8528 149.359 54.3351 150.091 55.2998C150.822 56.2478 151.187 57.387 151.187 58.7176Z" fill="#423B3C"/>
<path d="M159.67 55.674L157.601 55.6241L157.552 61.5366C157.552 63.0667 157.61 64.0646 157.726 64.5303C157.842 64.9794 158.175 65.2039 158.723 65.2039C158.989 65.2039 159.305 65.1208 159.67 64.9544C160.036 64.7715 160.26 64.68 160.343 64.68C160.692 64.68 160.867 64.8546 160.867 65.2039C160.867 65.5532 160.559 65.9108 159.945 66.2766C159.33 66.6425 158.723 66.8255 158.125 66.8255C156.679 66.8255 155.956 65.7611 155.956 63.6322L155.931 55.6241C155.383 55.674 155.001 55.6989 154.785 55.6989C153.954 55.6989 153.538 55.4245 153.538 54.8757C153.538 54.3268 153.954 54.0524 154.785 54.0524L155.881 54.1023L155.832 51.3082C155.832 50.4766 156.147 50.0608 156.779 50.0608C157.41 50.0608 157.726 50.4766 157.726 51.3082L157.651 54.1272L159.67 54.0275C160.501 54.0275 160.917 54.3102 160.917 54.8757C160.917 55.4079 160.501 55.674 159.67 55.674Z" fill="#423B3C"/>
<path d="M171.808 62.9836C171.808 64.0979 171.342 65.021 170.412 65.7528C169.498 66.4679 168.401 66.8255 167.121 66.8255C165.842 66.8255 164.72 66.5344 163.756 65.9523C162.809 65.3536 162.335 64.7632 162.335 64.1811C162.335 63.7985 162.493 63.5407 162.809 63.4077C163.125 63.2746 163.366 63.2913 163.532 63.4576C163.565 63.4742 163.898 63.7985 164.529 64.4305C164.712 64.5968 165.052 64.7715 165.551 64.9544C166.05 65.1208 166.49 65.2039 166.872 65.2039C167.803 65.2039 168.559 65.0126 169.141 64.6301C169.722 64.2476 170.013 63.7071 170.013 63.0085C170.013 62.1271 169.182 61.4036 167.52 60.8381C165.676 60.2061 164.496 59.6656 163.981 59.2165C163.731 59.0003 163.499 58.7176 163.283 58.3683C163.083 58.0024 162.984 57.6199 162.984 57.2207C162.984 56.3226 163.391 55.5409 164.205 54.8757C165.036 54.1938 166.025 53.8528 167.171 53.8528C168.318 53.8528 169.249 54.0524 169.963 54.4516C170.678 54.8341 171.035 55.2665 171.035 55.7488C171.035 56.2977 170.744 56.5721 170.163 56.5721C169.93 56.5721 169.681 56.4806 169.415 56.2977C168.617 55.7488 167.844 55.4744 167.096 55.4744C166.365 55.4744 165.809 55.6407 165.426 55.9733C164.978 56.2893 164.753 56.6636 164.753 57.096C164.753 57.5118 164.969 57.8527 165.401 58.1188C165.834 58.3849 166.54 58.7176 167.52 59.1167C168.501 59.4993 169.099 59.7404 169.315 59.8402C170.046 60.1562 170.644 60.5886 171.11 61.1375C171.575 61.6863 171.808 62.3017 171.808 62.9836Z" fill="#423B3C"/>
</svg>
