<svg width="220" height="70" viewBox="0 0 220 70" fill="none" xmlns="http://www.w3.org/2000/svg">
<path d="M52.6376 55.8212C64.6791 43.9745 64.6791 24.7673 52.6376 12.9206C40.596 1.0739 21.0728 1.0739 9.03118 12.9206C-3.01039 24.7673 -3.01039 43.9745 9.03118 55.8212C21.0727 67.6679 40.596 67.6679 52.6376 55.8212Z" fill="#FFDBE3"/>
<path d="M62.1459 14.0679C61.94 14.3718 61.94 14.7769 62.0945 15.0808C62.2489 15.3847 62.6092 15.5872 62.9696 15.5872C63.021 15.5872 63.0725 15.5872 63.124 15.5872C62.6607 16.195 61.5797 17.1572 60.4472 17.7143C59.3662 18.2714 59.1088 18.3726 58.7999 18.4739C58.4396 18.1194 58.0278 17.7649 57.6674 17.3598C57.3071 16.9546 56.9468 16.5495 56.6379 16.1443C56.7409 15.8405 56.8953 15.5872 57.5645 14.5744C58.2337 13.5615 59.3147 12.5486 59.9839 12.1435C59.9839 12.1941 59.9839 12.2954 59.9839 12.3967C59.9324 12.7512 60.0869 13.1563 60.3957 13.3589C60.7046 13.5615 61.1164 13.5615 61.4253 13.4096C62.043 13.055 62.5063 12.9031 62.7637 12.8525C62.7122 13.055 62.5578 13.4602 62.1459 14.0679ZM54.5788 20.1452C54.5274 19.2842 54.8362 18.4233 55.4539 17.7143C55.7113 18.0181 55.9687 18.322 56.2776 18.6259C56.535 18.9297 56.8438 19.2336 57.1527 19.4868C56.329 20.0439 55.4025 20.2971 54.5788 20.1452ZM37.6429 29.2611C34.9146 28.0962 33.6792 27.8937 32.2379 27.5898C31.6201 27.4885 30.9509 27.3872 30.1273 27.134C31.4657 25.1083 32.5982 22.6774 31.3627 19.6894C30.5906 17.8156 30.4362 15.9417 30.6935 14.5237C30.6935 14.4731 30.745 14.4224 30.745 14.3718C30.8995 13.6628 31.1568 13.1057 31.4657 12.7512C31.7231 12.498 31.9805 12.3967 32.3408 12.4473C33.4218 12.5993 35.1206 14.0173 36.5104 16.8533C36.8708 17.613 37.2311 18.4739 37.54 19.3855C37.7974 20.0439 37.9003 20.601 38.0547 21.158C38.4151 22.5254 38.7754 23.7409 40.2168 26.2224C40.6801 26.9821 41.0404 27.843 41.2463 28.6533C40.3197 27.6405 39.2902 26.7289 38.1577 25.8679C37.9003 25.6653 37.4885 25.716 37.2826 25.9692C37.0767 26.2224 37.1282 26.6276 37.3855 26.8301C38.7239 27.843 39.9594 29.0078 41.0404 30.3246C40.1138 30.1726 38.9813 29.8181 37.6429 29.2611ZM28.1197 26.5769C27.9653 26.5263 27.8108 26.4756 27.6564 26.425C24.6707 25.3108 23.1264 23.7409 22.8176 22.728C22.6117 22.1203 23.1264 21.7658 23.1779 21.7151C24.1045 20.9048 26.5239 20.449 29.7155 21.0061C30.3332 23.1332 29.3037 24.9057 28.1197 26.5769ZM24.4648 14.7769C25.0826 14.0679 26.7298 14.1186 28.6345 14.8782C28.48 16.1443 28.6345 17.5623 28.9948 18.9297C27.6564 18.7778 26.3695 18.7778 25.2885 18.9297C24.156 17.1572 23.7956 15.5366 24.4648 14.7769ZM57.0497 31.692L57.616 31.54C58.3366 31.3374 59.0573 31.2362 59.778 31.2868C58.9544 33.0087 57.3071 34.3761 55.2995 34.9332C54.3214 35.1864 53.5493 35.389 52.7257 35.389C53.4463 33.6164 55.0421 32.249 57.0497 31.692ZM59.1088 36.7057L58.5426 36.8576C56.8438 37.3134 55.0936 37.2121 53.6522 36.5031C54.27 36.4018 54.8877 36.2499 55.5569 36.098C56.8438 35.7435 57.9763 35.0851 58.9029 34.2748C59.778 33.4645 60.4987 32.5023 60.9105 31.4387C61.8886 31.6413 62.7637 32.0465 63.5358 32.6542C62.9696 34.528 61.2708 36.098 59.1088 36.7057ZM31.4657 39.7443C30.4362 39.4911 29.5611 38.7821 29.0978 37.7692V37.7186C29.0978 37.7186 29.0978 37.6679 29.0463 37.6679L28.9433 37.4653C28.48 36.4525 28.4286 35.3383 28.8404 34.4267C29.8699 34.6799 30.745 35.389 31.2083 36.4018L31.3627 36.7057C31.8775 37.6679 31.8775 38.7821 31.4657 39.7443ZM36.3045 44.6061C35.5324 45.3658 34.5028 45.7709 33.4218 45.7203L33.0615 45.6696C31.929 45.5683 30.9509 45.0113 30.3332 44.201C31.0539 43.492 32.1349 43.0868 33.2674 43.1881C33.2674 43.1881 33.8336 43.2387 33.9366 43.2387C33.9366 43.2387 33.9366 43.2387 33.9881 43.2387C34.9661 43.4413 35.7898 43.8971 36.3045 44.6061ZM21.1703 33.0593C19.9349 33.3126 18.5965 33.0087 17.5669 32.1477L17.2581 31.8945C16.2285 31.0336 15.6108 29.8181 15.6108 28.6027C16.8463 28.3495 18.1847 28.6533 19.2142 29.5143L19.5231 29.7675C20.6041 30.5778 21.1703 31.8439 21.1703 33.0593ZM23.7956 39.6937C23.6927 39.6937 23.5897 39.7443 23.4868 39.7443C22.4058 39.9975 21.2733 39.7443 20.4496 39.1366C20.9129 38.225 21.8395 37.5666 22.972 37.3134C23.0235 37.3134 23.1264 37.2628 23.1779 37.2628H23.2809C24.3619 37.0096 25.3399 37.4147 26.2665 37.9718C25.7518 38.8327 24.8767 39.4405 23.7956 39.6937ZM42.3788 12.2447C42.0699 12.0928 41.7096 11.9409 41.2978 11.7383C42.5332 10.5735 43.6657 9.00354 43.3569 6.72457C43.048 4.4456 43.8716 2.57178 44.5923 2.06535C44.7467 1.96406 44.8497 1.96406 45.0556 2.0147C45.6733 2.26792 46.5999 3.53402 47.0632 5.66105C47.1662 6.21814 47.2691 6.92715 47.3206 7.58552C47.3721 8.09195 47.3721 8.49711 47.3721 8.90226C47.3721 9.91513 47.4235 10.8774 47.9898 12.9538C48.0927 13.2576 48.1442 13.5615 48.1957 13.8147C47.8354 13.2576 47.4235 12.7005 47.0117 12.1435C46.8058 11.8902 46.394 11.8396 46.1366 12.0422C45.8792 12.2447 45.8278 12.5993 46.0337 12.9031C46.6514 13.7134 47.2176 14.5237 47.6809 15.4353C47.1662 15.1821 46.5999 14.7769 45.9822 14.3211C44.232 13.055 43.3569 12.6499 42.3788 12.2447ZM39.5476 10.6748C39.4961 10.6748 39.4961 10.6241 39.4446 10.6241C37.5914 9.35805 36.7678 8.04131 36.8193 7.38294C36.8193 7.23101 36.8708 7.12972 36.9737 7.07908C36.9737 7.07908 37.0252 7.02844 37.0767 7.02844C37.6944 6.62329 39.4446 6.67393 41.5037 7.58552C41.4007 8.85161 40.5256 9.81384 39.5476 10.6748ZM39.2902 2.26792C39.6505 2.0147 40.5771 2.16663 41.7096 2.92629C41.4522 3.68595 41.2978 4.49625 41.2978 5.40784C40.5771 5.15462 39.8564 4.95204 39.1358 4.85075C38.7239 3.48337 38.8784 2.52114 39.2902 2.26792ZM64.4109 11.3332C63.9991 10.8774 63.227 10.5229 61.8371 11.0293C61.7341 10.8267 61.6312 10.6241 61.4767 10.4722C61.1679 10.1177 60.7046 9.96578 60.2413 10.0164C58.6455 10.1684 56.6379 12.4473 55.9687 13.4602C55.1451 14.7263 54.9906 15.0302 54.8362 15.4859C54.8362 15.5366 54.8362 15.5366 54.7847 15.5872C54.6818 15.6885 54.5788 15.7392 54.4759 15.8405C53.1375 17.0559 52.4168 18.8284 52.6227 20.4997C52.1594 20.9555 51.6961 21.4113 51.2843 21.9177C51.1299 19.9932 50.6151 18.2207 50.1003 16.8533C50.3577 15.4859 50.3062 13.916 49.8944 12.3967C49.3797 10.5735 49.3797 9.81384 49.3797 8.85161C49.3797 8.44646 49.3797 7.99067 49.3282 7.43359C49.2767 6.62329 49.1738 5.86363 49.0193 5.2559C48.4531 2.67307 47.2691 0.748608 45.8278 0.191526C45.0556 -0.112336 44.232 -0.0616925 43.5628 0.394101C43.2539 0.596677 42.9965 0.849895 42.7391 1.15376C41.0404 0.0902389 39.3931 -0.16298 38.2607 0.596677C37.0767 1.35633 36.7163 2.92629 37.1796 4.85075C36.7163 4.95204 36.3045 5.10397 35.9442 5.30655C35.2235 5.76234 34.8632 6.47135 34.8632 7.28165C34.8632 8.80097 36.1501 10.6241 38.3636 12.1435C38.621 12.346 38.9299 12.498 39.1872 12.6499C40.2682 13.3083 40.9889 13.6121 41.6067 13.916C42.5332 14.3211 43.2539 14.6756 44.7982 15.8405C46.0851 16.8533 47.2691 17.4611 48.3501 17.7649C48.9678 19.5374 49.5856 21.9683 49.3282 24.5005C47.3721 27.4379 46.1366 30.7804 45.6733 34.1735C45.1071 33.0593 44.4894 31.9452 43.7687 30.9323C43.7172 29.0078 43.0995 26.9821 42.0185 25.2096C40.6801 22.9306 40.4227 21.8671 40.0623 20.5503C39.9079 19.9932 39.7535 19.4362 39.4961 18.6765C39.1358 17.6636 38.7754 16.7014 38.3636 15.8911C36.7678 12.7512 34.6573 10.6748 32.7011 10.4216C31.6716 10.2696 30.745 10.6241 30.0758 11.3838C29.7155 11.789 29.4066 12.2954 29.2007 12.9031C26.5754 11.9409 24.3104 12.0928 23.1264 13.4096C21.891 14.7769 21.9939 16.9546 23.3838 19.3855C22.6631 19.6387 22.0969 20.0439 21.6851 20.4997C21.0159 21.2593 20.7585 22.1709 21.0159 23.1838C21.4792 25.1083 23.7442 26.9821 27.0902 28.2482C27.502 28.4001 27.9138 28.552 28.3256 28.6533C29.9729 29.1598 31.0024 29.3117 31.929 29.5143C33.3189 29.7675 34.3999 29.9701 36.9222 31.0336C38.9813 31.9452 40.7315 32.3503 42.3273 32.3503C44.0775 34.8825 45.21 37.8198 45.7248 40.8585C45.7248 41.0104 45.8278 41.5675 45.8278 41.6181C46.1366 43.3907 46.6514 45.1126 47.3721 46.7332C47.3721 46.7838 47.9898 48.0499 48.2986 48.607C49.2252 50.2782 50.3062 51.8482 51.6446 53.2662L51.9535 53.6207L38.3121 43.9984C37.54 42.631 36.2016 41.6181 34.5028 41.3143L33.3189 40.4533C33.9881 38.9847 33.9366 37.2628 33.2159 35.7435L33.0615 35.4396C32.1864 33.6164 30.3847 32.401 28.4286 32.249C28.0682 32.249 27.7594 32.401 27.5535 32.6542C26.9357 33.5658 26.6269 34.5787 26.6269 35.6928L23.1779 33.3632C23.2809 31.4387 22.4058 29.5143 20.81 28.2482L20.5011 27.995C18.7509 26.5769 16.383 26.1718 14.3239 26.9314C14.015 27.0327 13.7576 27.3366 13.7062 27.6911C13.3458 29.8181 14.2209 31.9958 16.0226 33.4138L16.3315 33.6671C17.9273 34.9838 20.0893 35.4396 21.9425 34.8825L22.6631 35.389C22.6117 35.389 22.5602 35.389 22.5087 35.4396C20.5011 35.8447 18.9053 37.2628 18.2876 39.0859C18.1847 39.4404 18.2876 39.795 18.4935 40.0482C19.8319 41.4662 21.891 42.1246 23.8471 41.6688C23.9501 41.6688 24.1045 41.6181 24.2075 41.6181C25.6488 41.3143 26.9357 40.4533 27.7079 39.3392C28.48 40.4533 29.6125 41.2636 30.848 41.6181C29.8184 42.0233 28.9433 42.6817 28.2741 43.5932C28.0682 43.8971 28.0682 44.2516 28.1712 44.5555C28.9948 46.328 30.7965 47.4928 32.8556 47.6447L33.2159 47.6954C34.8632 47.8473 36.459 47.2396 37.6429 46.0748L58.2337 60.6602L66.1611 69.2696C66.5215 69.6748 67.1392 69.7254 67.551 69.3203C67.9628 68.9658 67.9628 68.358 67.6025 67.9529L59.6236 59.2928C59.6236 59.2928 59.6236 59.2928 59.5721 59.2422L52.983 52.1014C51.3873 50.3289 50.1003 48.4044 49.1738 46.328C49.3282 43.2894 50.2033 40.3014 51.5932 37.6679C53.7037 39.0859 56.432 39.5417 59.0573 38.7821L59.6236 38.6301C62.6607 37.7692 64.9772 35.4396 65.6464 32.5529C65.7493 32.1984 65.6464 31.8439 65.389 31.6413C63.227 29.5649 59.9839 28.8559 56.9468 29.7168L56.3805 29.8688C53.3949 30.7297 51.1299 32.958 50.3577 35.7941C49.1738 37.7692 48.2986 39.9469 47.7839 42.1752C47.7324 41.8207 47.5265 40.7572 47.475 40.5546C46.5484 33.9709 48.7105 27.0327 53.8582 22.1203C55.5569 22.4748 57.3586 21.9683 58.7485 20.7529C58.8514 20.6516 58.9544 20.601 59.0058 20.4997C59.0573 20.4997 59.0573 20.4997 59.1088 20.449C59.6236 20.2971 59.9324 20.1958 61.2708 19.5374C62.4033 18.9804 64.8742 17.2078 65.1831 15.6379C65.286 15.1314 65.1316 14.7263 64.8227 14.3718C64.6683 14.2199 64.5139 14.1186 64.3594 14.0173C65.0801 12.5486 64.7713 11.7889 64.4109 11.3332Z" fill="#423B3C"/>
<path d="M79.9382 28.1286V14.2777H81.8127V28.1286H79.9382ZM81.2145 22.0414V20.325H88.4334V22.0414H81.2145ZM81.2145 15.9941V14.2777H88.7724V15.9941H81.2145Z" fill="#423B3C"/>
<path d="M90.9142 28.1286V13.8786H92.709V28.1286H90.9142Z" fill="#423B3C"/>
<path d="M99.6622 28.3281C98.7316 28.3281 97.8941 28.1086 97.1496 27.6695C96.4051 27.2305 95.8135 26.6384 95.3748 25.8933C94.9361 25.1349 94.7167 24.29 94.7167 23.3586C94.7167 22.4406 94.9361 21.6156 95.3748 20.8838C95.8135 20.1387 96.4051 19.5466 97.1496 19.1076C97.8941 18.6685 98.7316 18.449 99.6622 18.449C100.58 18.449 101.41 18.6685 102.155 19.1076C102.913 19.5333 103.511 20.1188 103.95 20.8639C104.388 21.609 104.608 22.4406 104.608 23.3586C104.608 24.29 104.388 25.1349 103.95 25.8933C103.511 26.6384 102.913 27.2305 102.155 27.6695C101.41 28.1086 100.58 28.3281 99.6622 28.3281ZM99.6622 26.5918C100.26 26.5918 100.792 26.4521 101.258 26.1727C101.723 25.8933 102.088 25.5141 102.354 25.0351C102.62 24.5428 102.753 23.984 102.753 23.3586C102.753 22.7466 102.614 22.2011 102.334 21.7221C102.069 21.2431 101.703 20.8705 101.238 20.6044C100.786 20.325 100.26 20.1853 99.6622 20.1853C99.064 20.1853 98.5322 20.325 98.0669 20.6044C97.6016 20.8705 97.236 21.2431 96.9701 21.7221C96.7042 22.2011 96.5713 22.7466 96.5713 23.3586C96.5713 23.984 96.7042 24.5428 96.9701 25.0351C97.236 25.5141 97.6016 25.8933 98.0669 26.1727C98.5322 26.4521 99.064 26.5918 99.6622 26.5918Z" fill="#423B3C"/>
<path d="M109.069 28.1286L105.32 18.6485H107.195L109.907 26.033H109.309L112.001 18.6485H113.038L115.73 26.033H115.132L117.844 18.6485H119.718L115.989 28.1286H114.932L112.2 20.9637H112.858L110.106 28.1286H109.069Z" fill="#423B3C"/>
<path d="M125.428 28.3281C124.484 28.3281 123.633 28.1153 122.876 27.6895C122.118 27.2504 121.52 26.6583 121.081 25.9132C120.642 25.1681 120.423 24.3233 120.423 23.3786C120.423 22.4472 120.636 21.609 121.061 20.8639C121.5 20.1188 122.085 19.5333 122.816 19.1076C123.56 18.6685 124.391 18.449 125.309 18.449C126.186 18.449 126.957 18.6485 127.622 19.0477C128.3 19.4469 128.825 19.999 129.197 20.7042C129.583 21.4094 129.775 22.2077 129.775 23.0992C129.775 23.2322 129.769 23.3786 129.756 23.5382C129.742 23.6846 129.716 23.8576 129.676 24.0571H121.679V22.5603H128.719L128.06 23.1391C128.06 22.5004 127.947 21.9616 127.721 21.5225C127.495 21.0701 127.176 20.7242 126.764 20.4847C126.352 20.2319 125.854 20.1055 125.269 20.1055C124.657 20.1055 124.119 20.2385 123.653 20.5046C123.188 20.7707 122.829 21.1433 122.577 21.6223C122.324 22.1013 122.198 22.6667 122.198 23.3187C122.198 23.984 122.331 24.5694 122.596 25.075C122.862 25.5673 123.241 25.9532 123.733 26.2326C124.225 26.4987 124.79 26.6317 125.428 26.6317C125.96 26.6317 126.445 26.5386 126.884 26.3523C127.336 26.166 127.721 25.8866 128.041 25.5141L129.197 26.6916C128.745 27.2238 128.187 27.6296 127.522 27.909C126.871 28.1884 126.173 28.3281 125.428 28.3281Z" fill="#423B3C"/>
<path d="M131.732 28.1286V18.6485H133.527V28.1286H131.732ZM133.527 22.72L132.849 22.4206C132.849 21.2098 133.128 20.2452 133.687 19.5267C134.245 18.8082 135.049 18.449 136.1 18.449C136.578 18.449 137.01 18.5354 137.396 18.7084C137.781 18.8681 138.14 19.1408 138.473 19.5267L137.296 20.7441C137.097 20.5312 136.877 20.3782 136.638 20.2851C136.399 20.192 136.12 20.1454 135.801 20.1454C135.136 20.1454 134.591 20.3583 134.165 20.784C133.74 21.2098 133.527 21.8551 133.527 22.72Z" fill="#423B3C"/>
<path d="M145.81 22.7399V21.1034H149.579C150.098 21.1034 150.556 20.9969 150.955 20.784C151.367 20.5712 151.686 20.2718 151.912 19.8859C152.152 19.5001 152.271 19.041 152.271 18.5088C152.271 17.9766 152.152 17.5176 151.912 17.1317C151.686 16.7459 151.367 16.4465 150.955 16.2336C150.556 16.0207 150.098 15.9143 149.579 15.9143H145.81V14.2777H149.699C150.55 14.2777 151.308 14.4507 151.972 14.7967C152.65 15.1426 153.182 15.6349 153.568 16.2735C153.966 16.8989 154.166 17.644 154.166 18.5088C154.166 19.3604 153.966 20.1055 153.568 20.7441C153.182 21.3695 152.65 21.8618 151.972 22.221C151.308 22.567 150.55 22.7399 149.699 22.7399H145.81ZM144.554 28.1286V14.2777H146.429V28.1286H144.554Z" fill="#423B3C"/>
<path d="M159.811 28.3281C158.947 28.3281 158.163 28.1153 157.458 27.6895C156.754 27.2504 156.195 26.6583 155.783 25.9132C155.384 25.1681 155.185 24.3299 155.185 23.3985C155.185 22.4672 155.384 21.6289 155.783 20.8838C156.195 20.1387 156.747 19.5466 157.438 19.1076C158.143 18.6685 158.934 18.449 159.811 18.449C160.529 18.449 161.167 18.602 161.726 18.908C162.298 19.2007 162.756 19.6132 163.102 20.1454C163.447 20.6643 163.64 21.2697 163.68 21.9616V24.8156C163.64 25.4941 163.447 26.0995 163.102 26.6317C162.769 27.1639 162.317 27.5831 161.746 27.8891C161.187 28.1818 160.543 28.3281 159.811 28.3281ZM160.111 26.6317C161.001 26.6317 161.719 26.3324 162.264 25.7336C162.809 25.1216 163.082 24.3432 163.082 23.3985C163.082 22.7466 162.956 22.1811 162.703 21.7021C162.464 21.2098 162.118 20.8306 161.666 20.5645C161.214 20.2851 160.689 20.1454 160.091 20.1454C159.492 20.1454 158.961 20.2851 158.495 20.5645C158.043 20.8439 157.684 21.2298 157.418 21.7221C157.166 22.2011 157.04 22.7532 157.04 23.3786C157.04 24.0172 157.166 24.5827 157.418 25.075C157.684 25.554 158.05 25.9332 158.515 26.2126C158.981 26.492 159.512 26.6317 160.111 26.6317ZM162.962 28.1286V25.574L163.301 23.2588L162.962 20.9637V18.6485H164.777V28.1286H162.962Z" fill="#423B3C"/>
<path d="M167.39 28.1286V18.6485H169.185V28.1286H167.39ZM169.185 22.72L168.507 22.4206C168.507 21.2098 168.786 20.2452 169.344 19.5267C169.903 18.8082 170.707 18.449 171.757 18.449C172.236 18.449 172.668 18.5354 173.053 18.7084C173.439 18.8681 173.798 19.1408 174.13 19.5267L172.954 20.7441C172.754 20.5312 172.535 20.3782 172.296 20.2851C172.056 20.192 171.777 20.1454 171.458 20.1454C170.793 20.1454 170.248 20.3583 169.823 20.784C169.397 21.2098 169.185 21.8551 169.185 22.72Z" fill="#423B3C"/>
<path d="M179.11 28.3281C178.246 28.3281 177.462 28.1153 176.757 27.6895C176.053 27.2504 175.494 26.6583 175.082 25.9132C174.683 25.1681 174.484 24.3299 174.484 23.3985C174.484 22.4672 174.683 21.6289 175.082 20.8838C175.494 20.1387 176.046 19.5466 176.737 19.1076C177.442 18.6685 178.233 18.449 179.11 18.449C179.828 18.449 180.467 18.602 181.025 18.908C181.597 19.2007 182.055 19.6132 182.401 20.1454C182.747 20.6643 182.939 21.2697 182.979 21.9616V24.8156C182.939 25.4941 182.747 26.0995 182.401 26.6317C182.068 27.1639 181.616 27.5831 181.045 27.8891C180.486 28.1818 179.842 28.3281 179.11 28.3281ZM179.41 26.6317C180.3 26.6317 181.018 26.3324 181.563 25.7336C182.108 25.1216 182.381 24.3432 182.381 23.3985C182.381 22.7466 182.255 22.1811 182.002 21.7021C181.763 21.2098 181.417 20.8306 180.965 20.5645C180.513 20.2851 179.988 20.1454 179.39 20.1454C178.791 20.1454 178.26 20.2851 177.794 20.5645C177.342 20.8439 176.983 21.2298 176.717 21.7221C176.465 22.2011 176.339 22.7532 176.339 23.3786C176.339 24.0172 176.465 24.5827 176.717 25.075C176.983 25.554 177.349 25.9332 177.814 26.2126C178.28 26.492 178.811 26.6317 179.41 26.6317ZM182.261 28.1286V25.574L182.6 23.2588L182.261 20.9637V18.6485H184.076V28.1286H182.261Z" fill="#423B3C"/>
<path d="M190.697 28.3281C189.82 28.3281 189.035 28.1153 188.344 27.6895C187.653 27.2504 187.101 26.6583 186.689 25.9132C186.29 25.1681 186.091 24.3299 186.091 23.3985C186.091 22.4672 186.29 21.6289 186.689 20.8838C187.101 20.1387 187.653 19.5466 188.344 19.1076C189.035 18.6685 189.82 18.449 190.697 18.449C191.402 18.449 192.04 18.602 192.612 18.908C193.183 19.2007 193.642 19.6132 193.988 20.1454C194.347 20.6643 194.546 21.2697 194.586 21.9616V24.8156C194.546 25.4941 194.353 26.0995 194.008 26.6317C193.662 27.1639 193.203 27.5831 192.632 27.8891C192.06 28.1818 191.415 28.3281 190.697 28.3281ZM190.996 26.6317C191.595 26.6317 192.113 26.492 192.552 26.2126C193.004 25.9332 193.356 25.554 193.609 25.075C193.861 24.5827 193.988 24.0239 193.988 23.3985C193.988 22.7466 193.855 22.1811 193.589 21.7021C193.336 21.2231 192.984 20.8439 192.532 20.5645C192.093 20.2851 191.575 20.1454 190.976 20.1454C190.378 20.1454 189.853 20.2851 189.401 20.5645C188.949 20.8439 188.59 21.2298 188.324 21.7221C188.072 22.2011 187.945 22.7532 187.945 23.3786C187.945 24.0172 188.072 24.5827 188.324 25.075C188.59 25.554 188.949 25.9332 189.401 26.2126C189.866 26.492 190.398 26.6317 190.996 26.6317ZM195.683 28.1286H193.868V25.574L194.207 23.2588L193.868 20.9637V13.8786H195.683V28.1286Z" fill="#423B3C"/>
<path d="M198.316 28.1286V18.6485H200.11V28.1286H198.316ZM199.213 16.7525C198.881 16.7525 198.608 16.6461 198.395 16.4332C198.183 16.207 198.076 15.9276 198.076 15.595C198.076 15.2756 198.183 15.0095 198.395 14.7967C198.608 14.5705 198.881 14.4574 199.213 14.4574C199.545 14.4574 199.818 14.5705 200.031 14.7967C200.243 15.0095 200.35 15.2756 200.35 15.595C200.35 15.9276 200.243 16.207 200.031 16.4332C199.818 16.6461 199.545 16.7525 199.213 16.7525Z" fill="#423B3C"/>
<path d="M205.766 28.3281C205.235 28.3281 204.729 28.2616 204.251 28.1286C203.786 27.9822 203.354 27.7826 202.955 27.5298C202.556 27.2637 202.21 26.9511 201.918 26.5918L203.074 25.4342C203.42 25.86 203.819 26.1793 204.271 26.3922C204.723 26.5918 205.228 26.6916 205.786 26.6916C206.345 26.6916 206.777 26.5985 207.083 26.4122C207.388 26.2126 207.541 25.9398 207.541 25.5939C207.541 25.248 207.415 24.9819 207.162 24.7956C206.923 24.596 206.611 24.4363 206.225 24.3166C205.84 24.1835 205.427 24.0571 204.989 23.9374C204.563 23.8043 204.158 23.638 203.772 23.4385C203.387 23.2389 203.068 22.9661 202.815 22.6202C202.576 22.2742 202.456 21.8152 202.456 21.2431C202.456 20.6709 202.596 20.1787 202.875 19.7662C203.154 19.3404 203.54 19.0144 204.032 18.7882C204.537 18.5621 205.142 18.449 205.846 18.449C206.591 18.449 207.249 18.582 207.82 18.8481C208.405 19.1009 208.884 19.4868 209.256 20.0057L208.1 21.1632C207.834 20.8173 207.501 20.5512 207.103 20.3649C206.717 20.1787 206.278 20.0855 205.786 20.0855C205.268 20.0855 204.869 20.1787 204.59 20.3649C204.324 20.5379 204.191 20.784 204.191 21.1034C204.191 21.4227 204.311 21.6688 204.55 21.8418C204.789 22.0148 205.102 22.1611 205.487 22.2809C205.886 22.4006 206.298 22.527 206.724 22.6601C207.149 22.7798 207.555 22.9462 207.94 23.159C208.326 23.3719 208.638 23.658 208.877 24.0172C209.13 24.3765 209.256 24.8488 209.256 25.4342C209.256 26.3257 208.937 27.0309 208.299 27.5498C207.674 28.0687 206.83 28.3281 205.766 28.3281Z" fill="#423B3C"/>
<path d="M215.653 28.3281C214.709 28.3281 213.858 28.1153 213.1 27.6895C212.342 27.2504 211.744 26.6583 211.305 25.9132C210.867 25.1681 210.647 24.3233 210.647 23.3786C210.647 22.4472 210.86 21.609 211.286 20.8639C211.724 20.1188 212.309 19.5333 213.04 19.1076C213.785 18.6685 214.616 18.449 215.533 18.449C216.411 18.449 217.182 18.6485 217.846 19.0477C218.524 19.4469 219.049 19.999 219.422 20.7042C219.807 21.4094 220 22.2077 220 23.0992C220 23.2322 219.993 23.3786 219.98 23.5382C219.967 23.6846 219.94 23.8576 219.9 24.0571H211.904V22.5603H218.943L218.285 23.1391C218.285 22.5004 218.172 21.9616 217.946 21.5225C217.72 21.0701 217.401 20.7242 216.989 20.4847C216.577 20.2319 216.078 20.1055 215.493 20.1055C214.882 20.1055 214.343 20.2385 213.878 20.5046C213.413 20.7707 213.054 21.1433 212.801 21.6223C212.548 22.1013 212.422 22.6667 212.422 23.3187C212.422 23.984 212.555 24.5694 212.821 25.075C213.087 25.5673 213.466 25.9532 213.958 26.2326C214.45 26.4987 215.015 26.6317 215.653 26.6317C216.184 26.6317 216.67 26.5386 217.108 26.3523C217.56 26.166 217.946 25.8866 218.265 25.5141L219.422 26.6916C218.97 27.2238 218.411 27.6296 217.747 27.909C217.095 28.1884 216.397 28.3281 215.653 28.3281Z" fill="#423B3C"/>
<path d="M82.9494 43.8207C83.9199 43.355 84.8239 43.1222 85.6615 43.1222C86.499 43.1222 87.0906 43.2885 87.4363 43.6211C87.8351 43.9138 88.0345 44.2797 88.0345 44.7188C88.0345 45.0647 87.9215 45.3708 87.6955 45.6369C87.2036 46.1691 86.4392 46.4352 85.4022 46.4352C84.9768 46.4352 84.5048 46.3421 83.9864 46.1558C83.4679 45.9562 83.0225 45.7167 82.6503 45.4373C81.5202 46.209 80.9552 47.2535 80.9552 48.5707C80.9552 49.4621 81.3474 50.2871 82.1318 51.0455C82.9162 51.7906 83.9797 52.1631 85.3224 52.1631C86.6785 52.1631 87.7221 51.8771 88.4533 51.3049C89.1845 50.7328 89.6498 50.4467 89.8492 50.4467C90.2215 50.4467 90.4076 50.6197 90.4076 50.9656C90.4076 51.2584 90.1949 51.6043 89.7695 52.0035C89.344 52.4026 88.7258 52.7619 87.9149 53.0812C87.1172 53.4005 86.2929 53.5602 85.4421 53.5602C83.5676 53.5602 82.0786 53.0679 80.9752 52.0833C79.8983 51.0854 79.3599 49.9744 79.3599 48.7503C79.3599 46.9674 80.1376 45.5637 81.6931 44.5392C80.9619 43.7941 80.5963 42.8561 80.5963 41.7251C80.5963 40.5942 81.0416 39.6894 81.9324 39.0108C82.8364 38.3323 83.8534 37.993 84.9834 37.993C86.1135 37.993 87.1039 38.2059 87.9548 38.6316C88.8056 39.0441 89.231 39.5031 89.231 40.0087C89.231 40.3281 89.0981 40.5409 88.8322 40.6474C88.7524 40.6607 88.6328 40.6673 88.4732 40.6673C88.327 40.6673 88.101 40.5676 87.7952 40.368C86.9311 39.716 86.0603 39.39 85.1829 39.39C84.3187 39.39 83.6008 39.5963 83.0292 40.0087C82.391 40.4079 82.072 41.0266 82.072 41.8648C82.072 42.6898 82.3644 43.3417 82.9494 43.8207ZM83.9664 44.619L83.7471 44.7188C84.2124 45.0647 84.7973 45.2377 85.5019 45.2377C86.2065 45.2377 86.5588 45.0714 86.5588 44.7388C86.5588 44.4594 86.2331 44.3196 85.5817 44.3196C84.9303 44.3196 84.3918 44.4194 83.9664 44.619Z" fill="#423B3C"/>
<path d="M95.9547 50.786L96.9916 47.932C97.1511 47.5063 97.3904 46.7878 97.7095 45.7766C98.0286 44.7654 98.2479 44.1068 98.3676 43.8007C98.5537 43.3218 98.813 43.0823 99.1453 43.0823C99.3447 43.0823 99.5109 43.1488 99.6439 43.2818C99.7901 43.4016 99.8632 43.5546 99.8632 43.7409C99.8632 43.9138 99.8233 44.1001 99.7436 44.2997C99.6771 44.4993 99.6106 44.6722 99.5442 44.8186C99.491 44.9516 99.4179 45.1446 99.3248 45.3974C99.2317 45.6369 99.1187 45.9229 98.9858 46.2556C98.8528 46.5882 98.4806 47.5994 97.869 49.2892C97.2708 50.979 96.8321 52.0966 96.5529 52.6421C96.2737 53.1876 95.9015 53.4604 95.4362 53.4604C94.9842 53.4604 94.6385 53.2209 94.3992 52.7419C94.3194 52.5955 93.9738 51.7174 93.3622 50.1075L92.1657 46.9741C91.6871 45.75 91.388 44.9716 91.2683 44.639C91.1487 44.293 91.0889 44.0136 91.0889 43.8007C91.0889 43.5746 91.1553 43.4016 91.2883 43.2818C91.4212 43.1488 91.5874 43.0823 91.7868 43.0823C92.1458 43.0823 92.4183 43.3151 92.6044 43.7808C92.7241 44.0868 92.9169 44.6722 93.1828 45.5371L94.3593 48.89C94.7714 50.0609 95.044 50.8126 95.1769 51.1453C95.3099 51.4779 95.4029 51.6509 95.4561 51.6642C95.5625 51.6642 95.7286 51.3715 95.9547 50.786Z" fill="#423B3C"/>
<path d="M106.63 44.2797C105.753 44.2797 105.015 44.6124 104.417 45.2776C103.832 45.9296 103.446 46.6946 103.26 47.5728C103.978 47.7857 104.783 47.8921 105.673 47.8921C106.577 47.8921 107.302 47.7391 107.847 47.4331C108.392 47.1271 108.665 46.708 108.665 46.1757C108.665 45.6435 108.478 45.1978 108.106 44.8386C107.747 44.466 107.255 44.2797 106.63 44.2797ZM105.773 49.1495C105.082 49.1495 104.237 49.0497 103.24 48.8501C103.32 49.7948 103.666 50.5998 104.277 51.265C104.902 51.9303 105.627 52.2629 106.451 52.2629C107.275 52.2629 107.953 52.0633 108.485 51.6642C109.017 51.2517 109.362 51.0455 109.522 51.0455C109.695 51.0455 109.828 51.0987 109.921 51.2051C110.027 51.2983 110.08 51.418 110.08 51.5644C110.08 51.9369 109.695 52.3627 108.924 52.8417C108.166 53.3207 107.342 53.5602 106.451 53.5602C105.068 53.5602 103.965 53.0745 103.141 52.1032C102.33 51.1187 101.898 49.9478 101.844 48.5906C101.14 48.3645 100.788 48.0185 100.788 47.5528C100.788 47.2468 100.901 47.0472 101.127 46.9541C101.206 46.9275 101.306 46.9142 101.426 46.9142C101.559 46.9142 101.738 46.9741 101.964 47.0938C102.27 45.883 102.822 44.8984 103.619 44.14C104.43 43.3683 105.374 42.9825 106.451 42.9825C107.541 42.9825 108.419 43.2818 109.083 43.8806C109.748 44.4793 110.08 45.2643 110.08 46.2356C110.08 47.1936 109.668 47.9187 108.844 48.411C108.02 48.9033 106.996 49.1495 105.773 49.1495Z" fill="#423B3C"/>
<path d="M120.95 46.9741L120.85 50.1075V50.9656C120.877 51.5112 121.01 51.8372 121.249 51.9436C121.342 51.9702 121.448 51.9968 121.568 52.0234C121.688 52.0367 121.767 52.0567 121.807 52.0833C121.861 52.1099 121.887 52.1631 121.887 52.243C121.887 52.5889 121.774 52.8816 121.548 53.1211C121.335 53.3473 121.083 53.4604 120.79 53.4604C120.298 53.4604 119.953 53.2675 119.753 52.8816C119.554 52.4958 119.454 51.9037 119.454 51.1054L119.534 47.4331C119.534 46.515 119.335 45.7832 118.936 45.2377C118.55 44.6789 118.018 44.3995 117.34 44.3995C116.662 44.3995 116.004 44.7787 115.366 45.5371C114.741 46.2822 114.296 47.1404 114.03 48.1117L114.09 52.4425C114.09 53.1211 113.837 53.4604 113.332 53.4604C112.721 53.4604 112.415 53.008 112.415 52.1032C112.415 51.1852 112.548 49.8547 112.814 48.1117C112.814 47.5528 112.754 46.7678 112.634 45.7566C112.528 44.7454 112.475 44.1334 112.475 43.9205C112.475 43.7076 112.548 43.5147 112.694 43.3417C112.84 43.1687 113.026 43.0823 113.252 43.0823C113.478 43.0823 113.664 43.1687 113.811 43.3417C113.957 43.5147 114.03 43.701 114.03 43.9005C114.03 44.1001 114.023 44.3995 114.01 44.7986C114.01 45.1978 114.01 45.4706 114.01 45.6169C114.981 43.9271 116.177 43.0823 117.6 43.0823C118.663 43.0823 119.487 43.4681 120.072 44.2398C120.657 44.9982 120.95 45.9096 120.95 46.9741Z" fill="#423B3C"/>
<path d="M127.736 44.5392L126.081 44.4993L126.041 49.2293C126.041 50.4534 126.088 51.2517 126.181 51.6243C126.274 51.9835 126.54 52.1631 126.978 52.1631C127.191 52.1631 127.444 52.0966 127.736 51.9636C128.029 51.8172 128.208 51.744 128.275 51.744C128.554 51.744 128.693 51.8837 128.693 52.1631C128.693 52.4425 128.448 52.7286 127.956 53.0213C127.464 53.314 126.978 53.4604 126.5 53.4604C125.343 53.4604 124.765 52.6089 124.765 50.9058L124.745 44.4993C124.306 44.5392 124.001 44.5591 123.828 44.5591C123.163 44.5591 122.831 44.3396 122.831 43.9005C122.831 43.4615 123.163 43.2419 123.828 43.2419L124.705 43.2818L124.665 41.0465C124.665 40.3813 124.918 40.0486 125.423 40.0486C125.928 40.0486 126.181 40.3813 126.181 41.0465L126.121 43.3018L127.736 43.222C128.401 43.222 128.733 43.4481 128.733 43.9005C128.733 44.3263 128.401 44.5392 127.736 44.5392Z" fill="#423B3C"/>
<path d="M137.446 50.3869C137.446 51.2783 137.074 52.0168 136.329 52.6022C135.598 53.1743 134.721 53.4604 133.697 53.4604C132.673 53.4604 131.776 53.2275 131.005 52.7619C130.247 52.2829 129.868 51.8105 129.868 51.3448C129.868 51.0388 129.995 50.8326 130.247 50.7262C130.5 50.6197 130.693 50.633 130.826 50.7661C130.852 50.7794 131.118 51.0388 131.623 51.5444C131.769 51.6775 132.042 51.8172 132.441 51.9636C132.84 52.0966 133.192 52.1631 133.498 52.1631C134.242 52.1631 134.847 52.0101 135.312 51.7041C135.778 51.3981 136.01 50.9656 136.01 50.4068C136.01 49.7016 135.346 49.1229 134.016 48.6705C132.541 48.1649 131.597 47.7325 131.184 47.3732C130.985 47.2002 130.799 46.9741 130.626 46.6946C130.467 46.4019 130.387 46.0959 130.387 45.7766C130.387 45.0581 130.713 44.4327 131.364 43.9005C132.029 43.355 132.82 43.0823 133.737 43.0823C134.654 43.0823 135.399 43.2419 135.97 43.5612C136.542 43.8673 136.828 44.2132 136.828 44.5991C136.828 45.0381 136.595 45.2577 136.13 45.2577C135.944 45.2577 135.744 45.1845 135.532 45.0381C134.894 44.5991 134.275 44.3795 133.677 44.3795C133.092 44.3795 132.647 44.5126 132.341 44.7787C131.982 45.0315 131.803 45.3309 131.803 45.6768C131.803 46.0094 131.975 46.2822 132.321 46.4951C132.667 46.708 133.232 46.9741 134.016 47.2934C134.801 47.5994 135.279 47.7923 135.452 47.8722C136.037 48.125 136.516 48.4709 136.888 48.91C137.26 49.3491 137.446 49.8413 137.446 50.3869Z" fill="#423B3C"/>
</svg>
